0
SECTION
2
HEADER
9
$ACADVER
1
AC1006
0
ENDSEC
0
SECTION
2
TABLES
0
TABLE
2
LAYER
70
3
0
LAYER
70
0
62
1
6
CONTINUOUS
2
L0D0_0
0
LAYER
70
0
62
2
6
CONTINUOUS
2
L0D0_0
0
LAYER
70
0
62
3
6
CONTINUOUS
2
L2D0
0
ENDTAB
0
ENDSEC
0
SECTION
2
BLOCKS
0
ENDSEC
0
SECTION
2
ENTITIES
0
POLYLINE
8
L2D0
70
1
40
0
41
0
66
1
0
VERTEX
8
L2D0
10
38386.868
20
159.628
0
VERTEX
8
L2D0
10
38386.868
20
375.604
0
VERTEX
8
L2D0
10
38501.868
20
375.604
0
VERTEX
8
L2D0
10
38501.868
20
362.604
0
VERTEX
8
L2D0
10
38500.368
20
362.604
0
VERTEX
8
L2D0
10
38500.368
20
375.604
0
VERTEX
8
L2D0
10
38499.368
20
375.604
0
VERTEX
8
L2D0
10
38499.368
20
362.604
0
VERTEX
8
L2D0
10
38497.868
20
362.604
0
VERTEX
8
L2D0
10
38497.868
20
375.604
0
VERTEX
8
L2D0
10
38496.868
20
375.604
0
VERTEX
8
L2D0
10
38496.868
20
362.604
0
VERTEX
8
L2D0
10
38495.368
20
362.604
0
VERTEX
8
L2D0
10
38495.368
20
375.604
0
VERTEX
8
L2D0
10
38494.368
20
375.604
0
VERTEX
8
L2D0
10
38494.368
20
362.604
0
VERTEX
8
L2D0
10
38492.868
20
362.604
0
VERTEX
8
L2D0
10
38492.868
20
375.604
0
VERTEX
8
L2D0
10
38491.868
20
375.604
0
VERTEX
8
L2D0
10
38491.868
20
362.604
0
VERTEX
8
L2D0
10
38470.368
20
362.604
0
VERTEX
8
L2D0
10
38470.368
20
375.604
0
VERTEX
8
L2D0
10
38469.368
20
375.604
0
VERTEX
8
L2D0
10
38469.368
20
362.604
0
VERTEX
8
L2D0
10
38467.868
20
362.604
0
VERTEX
8
L2D0
10
38467.868
20
375.604
0
VERTEX
8
L2D0
10
38466.868
20
375.604
0
VERTEX
8
L2D0
10
38466.868
20
362.604
0
VERTEX
8
L2D0
10
38465.368
20
362.604
0
VERTEX
8
L2D0
10
38465.368
20
375.604
0
VERTEX
8
L2D0
10
38464.368
20
375.604
0
VERTEX
8
L2D0
10
38464.368
20
362.604
0
VERTEX
8
L2D0
10
38462.868
20
362.604
0
VERTEX
8
L2D0
10
38462.868
20
375.604
0
VERTEX
8
L2D0
10
38461.868
20
375.604
0
VERTEX
8
L2D0
10
38461.868
20
362.604
0
VERTEX
8
L2D0
10
38442.868
20
362.604
0
VERTEX
8
L2D0
10
38442.868
20
375.604
0
VERTEX
8
L2D0
10
38441.868
20
375.604
0
VERTEX
8
L2D0
10
38441.868
20
362.604
0
VERTEX
8
L2D0
10
38440.368
20
362.604
0
VERTEX
8
L2D0
10
38440.368
20
375.604
0
VERTEX
8
L2D0
10
38439.368
20
375.604
0
VERTEX
8
L2D0
10
38439.368
20
362.604
0
VERTEX
8
L2D0
10
38437.868
20
362.604
0
VERTEX
8
L2D0
10
38437.868
20
375.604
0
VERTEX
8
L2D0
10
38436.868
20
375.604
0
VERTEX
8
L2D0
10
38436.868
20
362.604
0
VERTEX
8
L2D0
10
38435.368
20
362.604
0
VERTEX
8
L2D0
10
38435.368
20
375.604
0
VERTEX
8
L2D0
10
38434.368
20
375.604
0
VERTEX
8
L2D0
10
38434.368
20
362.604
0
VERTEX
8
L2D0
10
38432.868
20
362.604
0
VERTEX
8
L2D0
10
38432.868
20
375.604
0
VERTEX
8
L2D0
10
38431.868
20
375.604
0
VERTEX
8
L2D0
10
38431.868
20
362.604
0
VERTEX
8
L2D0
10
38424.368
20
362.604
0
VERTEX
8
L2D0
10
38424.368
20
361.104
0
VERTEX
8
L2D0
10
38411.368
20
361.104
0
VERTEX
8
L2D0
10
38411.368
20
360.104
0
VERTEX
8
L2D0
10
38424.368
20
360.104
0
VERTEX
8
L2D0
10
38424.368
20
358.604
0
VERTEX
8
L2D0
10
38411.368
20
358.604
0
VERTEX
8
L2D0
10
38411.368
20
357.604
0
VERTEX
8
L2D0
10
38424.368
20
357.604
0
VERTEX
8
L2D0
10
38424.368
20
356.104
0
VERTEX
8
L2D0
10
38411.368
20
356.104
0
VERTEX
8
L2D0
10
38411.368
20
355.104
0
VERTEX
8
L2D0
10
38424.368
20
355.104
0
VERTEX
8
L2D0
10
38424.368
20
353.604
0
VERTEX
8
L2D0
10
38411.368
20
353.604
0
VERTEX
8
L2D0
10
38411.368
20
352.604
0
VERTEX
8
L2D0
10
38424.368
20
352.604
0
VERTEX
8
L2D0
10
38424.368
20
351.104
0
VERTEX
8
L2D0
10
38411.368
20
351.104
0
VERTEX
8
L2D0
10
38411.368
20
350.104
0
VERTEX
8
L2D0
10
38424.368
20
350.104
0
VERTEX
8
L2D0
10
38424.368
20
331.104
0
VERTEX
8
L2D0
10
38411.368
20
331.104
0
VERTEX
8
L2D0
10
38411.368
20
330.104
0
VERTEX
8
L2D0
10
38424.368
20
330.104
0
VERTEX
8
L2D0
10
38424.368
20
328.604
0
VERTEX
8
L2D0
10
38411.368
20
328.604
0
VERTEX
8
L2D0
10
38411.368
20
327.604
0
VERTEX
8
L2D0
10
38424.368
20
327.604
0
VERTEX
8
L2D0
10
38424.368
20
326.104
0
VERTEX
8
L2D0
10
38411.368
20
326.104
0
VERTEX
8
L2D0
10
38411.368
20
325.104
0
VERTEX
8
L2D0
10
38424.368
20
325.104
0
VERTEX
8
L2D0
10
38424.368
20
323.604
0
VERTEX
8
L2D0
10
38411.368
20
323.604
0
VERTEX
8
L2D0
10
38411.368
20
322.604
0
VERTEX
8
L2D0
10
38424.368
20
322.604
0
VERTEX
8
L2D0
10
38424.368
20
321.104
0
VERTEX
8
L2D0
10
38411.368
20
321.104
0
VERTEX
8
L2D0
10
38411.368
20
320.104
0
VERTEX
8
L2D0
10
38424.368
20
320.104
0
VERTEX
8
L2D0
10
38424.368
20
301.104
0
VERTEX
8
L2D0
10
38411.368
20
301.104
0
VERTEX
8
L2D0
10
38411.368
20
300.104
0
VERTEX
8
L2D0
10
38424.368
20
300.104
0
VERTEX
8
L2D0
10
38424.368
20
298.604
0
VERTEX
8
L2D0
10
38411.368
20
298.604
0
VERTEX
8
L2D0
10
38411.368
20
297.604
0
VERTEX
8
L2D0
10
38424.368
20
297.604
0
VERTEX
8
L2D0
10
38424.368
20
296.104
0
VERTEX
8
L2D0
10
38411.368
20
296.104
0
VERTEX
8
L2D0
10
38411.368
20
295.104
0
VERTEX
8
L2D0
10
38424.368
20
295.104
0
VERTEX
8
L2D0
10
38424.368
20
293.604
0
VERTEX
8
L2D0
10
38411.368
20
293.604
0
VERTEX
8
L2D0
10
38411.368
20
292.604
0
VERTEX
8
L2D0
10
38424.368
20
292.604
0
VERTEX
8
L2D0
10
38424.368
20
291.104
0
VERTEX
8
L2D0
10
38411.368
20
291.104
0
VERTEX
8
L2D0
10
38411.368
20
290.104
0
VERTEX
8
L2D0
10
38424.368
20
290.104
0
VERTEX
8
L2D0
10
38424.368
20
282.604
0
VERTEX
8
L2D0
10
38425.868
20
282.604
0
VERTEX
8
L2D0
10
38425.868
20
269.604
0
VERTEX
8
L2D0
10
38426.868
20
269.604
0
VERTEX
8
L2D0
10
38426.868
20
282.604
0
VERTEX
8
L2D0
10
38428.368
20
282.604
0
VERTEX
8
L2D0
10
38428.368
20
269.604
0
VERTEX
8
L2D0
10
38429.368
20
269.604
0
VERTEX
8
L2D0
10
38429.368
20
282.604
0
VERTEX
8
L2D0
10
38430.868
20
282.604
0
VERTEX
8
L2D0
10
38430.868
20
269.604
0
VERTEX
8
L2D0
10
38431.868
20
269.604
0
VERTEX
8
L2D0
10
38431.868
20
282.604
0
VERTEX
8
L2D0
10
38433.368
20
282.604
0
VERTEX
8
L2D0
10
38433.368
20
269.604
0
VERTEX
8
L2D0
10
38434.368
20
269.604
0
VERTEX
8
L2D0
10
38434.368
20
282.604
0
VERTEX
8
L2D0
10
38435.868
20
282.604
0
VERTEX
8
L2D0
10
38435.868
20
269.604
0
VERTEX
8
L2D0
10
38436.868
20
269.604
0
VERTEX
8
L2D0
10
38436.868
20
282.604
0
VERTEX
8
L2D0
10
38455.868
20
282.604
0
VERTEX
8
L2D0
10
38455.868
20
269.604
0
VERTEX
8
L2D0
10
38456.868
20
269.604
0
VERTEX
8
L2D0
10
38456.868
20
282.604
0
VERTEX
8
L2D0
10
38458.368
20
282.604
0
VERTEX
8
L2D0
10
38458.368
20
269.604
0
VERTEX
8
L2D0
10
38459.368
20
269.604
0
VERTEX
8
L2D0
10
38459.368
20
282.604
0
VERTEX
8
L2D0
10
38460.868
20
282.604
0
VERTEX
8
L2D0
10
38460.868
20
269.604
0
VERTEX
8
L2D0
10
38461.868
20
269.604
0
VERTEX
8
L2D0
10
38461.868
20
282.604
0
VERTEX
8
L2D0
10
38463.368
20
282.604
0
VERTEX
8
L2D0
10
38463.368
20
269.604
0
VERTEX
8
L2D0
10
38464.368
20
269.604
0
VERTEX
8
L2D0
10
38464.368
20
282.604
0
VERTEX
8
L2D0
10
38465.868
20
282.604
0
VERTEX
8
L2D0
10
38465.868
20
269.604
0
VERTEX
8
L2D0
10
38466.868
20
269.604
0
VERTEX
8
L2D0
10
38466.868
20
282.604
0
VERTEX
8
L2D0
10
38485.868
20
282.604
0
VERTEX
8
L2D0
10
38485.868
20
269.604
0
VERTEX
8
L2D0
10
38486.868
20
269.604
0
VERTEX
8
L2D0
10
38486.868
20
282.604
0
VERTEX
8
L2D0
10
38488.368
20
282.604
0
VERTEX
8
L2D0
10
38488.368
20
269.604
0
VERTEX
8
L2D0
10
38489.368
20
269.604
0
VERTEX
8
L2D0
10
38489.368
20
282.604
0
VERTEX
8
L2D0
10
38490.868
20
282.604
0
VERTEX
8
L2D0
10
38490.868
20
269.604
0
VERTEX
8
L2D0
10
38491.868
20
269.604
0
VERTEX
8
L2D0
10
38491.868
20
282.604
0
VERTEX
8
L2D0
10
38493.368
20
282.604
0
VERTEX
8
L2D0
10
38493.368
20
269.604
0
VERTEX
8
L2D0
10
38494.368
20
269.604
0
VERTEX
8
L2D0
10
38494.368
20
282.604
0
VERTEX
8
L2D0
10
38495.868
20
282.604
0
VERTEX
8
L2D0
10
38495.868
20
269.604
0
VERTEX
8
L2D0
10
38496.868
20
269.604
0
VERTEX
8
L2D0
10
38496.868
20
282.604
0
VERTEX
8
L2D0
10
38504.383
20
282.604
0
VERTEX
8
L2D0
10
38504.383
20
322.654
0
VERTEX
8
L2D0
10
38584.368
20
322.654
0
VERTEX
8
L2D0
10
38584.358
20
322.653
0
VERTEX
8
L2D0
10
38584.349
20
322.651
0
VERTEX
8
L2D0
10
38584.34
20
322.646
0
VERTEX
8
L2D0
10
38584.332
20
322.64
0
VERTEX
8
L2D0
10
38584.326
20
322.632
0
VERTEX
8
L2D0
10
38584.322
20
322.624
0
VERTEX
8
L2D0
10
38584.319
20
322.614
0
VERTEX
8
L2D0
10
38584.318
20
322.604
0
VERTEX
8
L2D0
10
38584.319
20
322.595
0
VERTEX
8
L2D0
10
38584.322
20
322.585
0
VERTEX
8
L2D0
10
38584.326
20
322.577
0
VERTEX
8
L2D0
10
38584.332
20
322.569
0
VERTEX
8
L2D0
10
38584.34
20
322.563
0
VERTEX
8
L2D0
10
38584.349
20
322.558
0
VERTEX
8
L2D0
10
38584.358
20
322.555
0
VERTEX
8
L2D0
10
38584.368
20
322.554
0
VERTEX
8
L2D0
10
38584.377
20
322.555
0
VERTEX
8
L2D0
10
38584.387
20
322.558
0
VERTEX
8
L2D0
10
38584.395
20
322.563
0
VERTEX
8
L2D0
10
38584.403
20
322.569
0
VERTEX
8
L2D0
10
38584.409
20
322.577
0
VERTEX
8
L2D0
10
38584.414
20
322.585
0
VERTEX
8
L2D0
10
38584.417
20
322.595
0
VERTEX
8
L2D0
10
38584.418
20
322.604
0
VERTEX
8
L2D0
10
38584.417
20
322.614
0
VERTEX
8
L2D0
10
38584.414
20
322.624
0
VERTEX
8
L2D0
10
38584.409
20
322.632
0
VERTEX
8
L2D0
10
38584.403
20
322.64
0
VERTEX
8
L2D0
10
38584.395
20
322.646
0
VERTEX
8
L2D0
10
38584.387
20
322.651
0
VERTEX
8
L2D0
10
38584.377
20
322.653
0
VERTEX
8
L2D0
10
38584.368
20
322.654
0
VERTEX
8
L2D0
10
38504.383
20
322.654
0
VERTEX
8
L2D0
10
38504.383
20
362.604
0
VERTEX
8
L2D0
10
38502.868
20
362.604
0
VERTEX
8
L2D0
10
38502.868
20
375.604
0
VERTEX
8
L2D0
10
38741.868
20
375.604
0
VERTEX
8
L2D0
10
38741.868
20
362.604
0
VERTEX
8
L2D0
10
38740.368
20
362.604
0
VERTEX
8
L2D0
10
38740.368
20
375.604
0
VERTEX
8
L2D0
10
38739.368
20
375.604
0
VERTEX
8
L2D0
10
38739.368
20
362.604
0
VERTEX
8
L2D0
10
38737.868
20
362.604
0
VERTEX
8
L2D0
10
38737.868
20
375.604
0
VERTEX
8
L2D0
10
38736.868
20
375.604
0
VERTEX
8
L2D0
10
38736.868
20
362.604
0
VERTEX
8
L2D0
10
38735.368
20
362.604
0
VERTEX
8
L2D0
10
38735.368
20
375.604
0
VERTEX
8
L2D0
10
38734.368
20
375.604
0
VERTEX
8
L2D0
10
38734.368
20
362.604
0
VERTEX
8
L2D0
10
38732.868
20
362.604
0
VERTEX
8
L2D0
10
38732.868
20
375.604
0
VERTEX
8
L2D0
10
38731.868
20
375.604
0
VERTEX
8
L2D0
10
38731.868
20
362.604
0
VERTEX
8
L2D0
10
38712.868
20
362.604
0
VERTEX
8
L2D0
10
38712.868
20
375.604
0
VERTEX
8
L2D0
10
38711.868
20
375.604
0
VERTEX
8
L2D0
10
38711.868
20
362.604
0
VERTEX
8
L2D0
10
38710.368
20
362.604
0
VERTEX
8
L2D0
10
38710.368
20
375.604
0
VERTEX
8
L2D0
10
38709.368
20
375.604
0
VERTEX
8
L2D0
10
38709.368
20
362.604
0
VERTEX
8
L2D0
10
38707.868
20
362.604
0
VERTEX
8
L2D0
10
38707.868
20
375.604
0
VERTEX
8
L2D0
10
38706.868
20
375.604
0
VERTEX
8
L2D0
10
38706.868
20
362.604
0
VERTEX
8
L2D0
10
38705.368
20
362.604
0
VERTEX
8
L2D0
10
38705.368
20
375.604
0
VERTEX
8
L2D0
10
38704.368
20
375.604
0
VERTEX
8
L2D0
10
38704.368
20
362.604
0
VERTEX
8
L2D0
10
38702.868
20
362.604
0
VERTEX
8
L2D0
10
38702.868
20
375.604
0
VERTEX
8
L2D0
10
38701.868
20
375.604
0
VERTEX
8
L2D0
10
38701.868
20
362.604
0
VERTEX
8
L2D0
10
38682.868
20
362.604
0
VERTEX
8
L2D0
10
38682.868
20
375.604
0
VERTEX
8
L2D0
10
38681.868
20
375.604
0
VERTEX
8
L2D0
10
38681.868
20
362.604
0
VERTEX
8
L2D0
10
38680.368
20
362.604
0
VERTEX
8
L2D0
10
38680.368
20
375.604
0
VERTEX
8
L2D0
10
38679.368
20
375.604
0
VERTEX
8
L2D0
10
38679.368
20
362.604
0
VERTEX
8
L2D0
10
38677.868
20
362.604
0
VERTEX
8
L2D0
10
38677.868
20
375.604
0
VERTEX
8
L2D0
10
38676.868
20
375.604
0
VERTEX
8
L2D0
10
38676.868
20
362.604
0
VERTEX
8
L2D0
10
38675.368
20
362.604
0
VERTEX
8
L2D0
10
38675.368
20
375.604
0
VERTEX
8
L2D0
10
38674.368
20
375.604
0
VERTEX
8
L2D0
10
38674.368
20
362.604
0
VERTEX
8
L2D0
10
38672.868
20
362.604
0
VERTEX
8
L2D0
10
38672.868
20
375.604
0
VERTEX
8
L2D0
10
38671.868
20
375.604
0
VERTEX
8
L2D0
10
38671.868
20
362.604
0
VERTEX
8
L2D0
10
38664.368
20
362.604
0
VERTEX
8
L2D0
10
38664.368
20
282.604
0
VERTEX
8
L2D0
10
38665.868
20
282.604
0
VERTEX
8
L2D0
10
38665.868
20
269.604
0
VERTEX
8
L2D0
10
38666.868
20
269.604
0
VERTEX
8
L2D0
10
38666.868
20
282.604
0
VERTEX
8
L2D0
10
38668.368
20
282.604
0
VERTEX
8
L2D0
10
38668.368
20
269.604
0
VERTEX
8
L2D0
10
38669.368
20
269.604
0
VERTEX
8
L2D0
10
38669.368
20
282.604
0
VERTEX
8
L2D0
10
38670.868
20
282.604
0
VERTEX
8
L2D0
10
38670.868
20
269.604
0
VERTEX
8
L2D0
10
38671.868
20
269.604
0
VERTEX
8
L2D0
10
38671.868
20
282.604
0
VERTEX
8
L2D0
10
38673.368
20
282.604
0
VERTEX
8
L2D0
10
38673.368
20
269.604
0
VERTEX
8
L2D0
10
38674.368
20
269.604
0
VERTEX
8
L2D0
10
38674.368
20
282.604
0
VERTEX
8
L2D0
10
38675.868
20
282.604
0
VERTEX
8
L2D0
10
38675.868
20
269.604
0
VERTEX
8
L2D0
10
38676.868
20
269.604
0
VERTEX
8
L2D0
10
38676.868
20
282.604
0
VERTEX
8
L2D0
10
38695.868
20
282.604
0
VERTEX
8
L2D0
10
38695.868
20
269.604
0
VERTEX
8
L2D0
10
38696.868
20
269.604
0
VERTEX
8
L2D0
10
38696.868
20
282.604
0
VERTEX
8
L2D0
10
38698.368
20
282.604
0
VERTEX
8
L2D0
10
38698.368
20
269.604
0
VERTEX
8
L2D0
10
38699.368
20
269.604
0
VERTEX
8
L2D0
10
38699.368
20
282.604
0
VERTEX
8
L2D0
10
38700.868
20
282.604
0
VERTEX
8
L2D0
10
38700.868
20
269.604
0
VERTEX
8
L2D0
10
38701.868
20
269.604
0
VERTEX
8
L2D0
10
38701.868
20
282.604
0
VERTEX
8
L2D0
10
38703.368
20
282.604
0
VERTEX
8
L2D0
10
38703.368
20
269.604
0
VERTEX
8
L2D0
10
38704.368
20
269.604
0
VERTEX
8
L2D0
10
38704.368
20
282.604
0
VERTEX
8
L2D0
10
38705.868
20
282.604
0
VERTEX
8
L2D0
10
38705.868
20
269.604
0
VERTEX
8
L2D0
10
38706.868
20
269.604
0
VERTEX
8
L2D0
10
38706.868
20
282.604
0
VERTEX
8
L2D0
10
38725.868
20
282.604
0
VERTEX
8
L2D0
10
38725.868
20
269.604
0
VERTEX
8
L2D0
10
38726.868
20
269.604
0
VERTEX
8
L2D0
10
38726.868
20
282.604
0
VERTEX
8
L2D0
10
38728.368
20
282.604
0
VERTEX
8
L2D0
10
38728.368
20
269.604
0
VERTEX
8
L2D0
10
38729.368
20
269.604
0
VERTEX
8
L2D0
10
38729.368
20
282.604
0
VERTEX
8
L2D0
10
38730.868
20
282.604
0
VERTEX
8
L2D0
10
38730.868
20
269.604
0
VERTEX
8
L2D0
10
38731.868
20
269.604
0
VERTEX
8
L2D0
10
38731.868
20
282.604
0
VERTEX
8
L2D0
10
38733.368
20
282.604
0
VERTEX
8
L2D0
10
38733.368
20
269.604
0
VERTEX
8
L2D0
10
38734.368
20
269.604
0
VERTEX
8
L2D0
10
38734.368
20
282.604
0
VERTEX
8
L2D0
10
38735.868
20
282.604
0
VERTEX
8
L2D0
10
38735.868
20
269.604
0
VERTEX
8
L2D0
10
38736.868
20
269.604
0
VERTEX
8
L2D0
10
38736.868
20
282.604
0
VERTEX
8
L2D0
10
38744.383
20
282.604
0
VERTEX
8
L2D0
10
38744.383
20
284.104
0
VERTEX
8
L2D0
10
38757.368
20
284.104
0
VERTEX
8
L2D0
10
38757.368
20
285.104
0
VERTEX
8
L2D0
10
38744.383
20
285.104
0
VERTEX
8
L2D0
10
38744.383
20
286.604
0
VERTEX
8
L2D0
10
38757.368
20
286.604
0
VERTEX
8
L2D0
10
38757.368
20
287.604
0
VERTEX
8
L2D0
10
38744.383
20
287.604
0
VERTEX
8
L2D0
10
38744.383
20
289.104
0
VERTEX
8
L2D0
10
38757.368
20
289.104
0
VERTEX
8
L2D0
10
38757.368
20
290.104
0
VERTEX
8
L2D0
10
38744.383
20
290.104
0
VERTEX
8
L2D0
10
38744.383
20
291.604
0
VERTEX
8
L2D0
10
38757.368
20
291.604
0
VERTEX
8
L2D0
10
38757.368
20
292.604
0
VERTEX
8
L2D0
10
38744.383
20
292.604
0
VERTEX
8
L2D0
10
38744.383
20
294.104
0
VERTEX
8
L2D0
10
38757.368
20
294.104
0
VERTEX
8
L2D0
10
38757.368
20
295.104
0
VERTEX
8
L2D0
10
38744.383
20
295.104
0
VERTEX
8
L2D0
10
38744.383
20
314.104
0
VERTEX
8
L2D0
10
38757.368
20
314.104
0
VERTEX
8
L2D0
10
38757.368
20
315.104
0
VERTEX
8
L2D0
10
38744.383
20
315.104
0
VERTEX
8
L2D0
10
38744.383
20
316.604
0
VERTEX
8
L2D0
10
38757.368
20
316.604
0
VERTEX
8
L2D0
10
38757.368
20
317.604
0
VERTEX
8
L2D0
10
38744.383
20
317.604
0
VERTEX
8
L2D0
10
38744.383
20
319.104
0
VERTEX
8
L2D0
10
38757.368
20
319.104
0
VERTEX
8
L2D0
10
38757.368
20
320.104
0
VERTEX
8
L2D0
10
38744.383
20
320.104
0
VERTEX
8
L2D0
10
38744.383
20
321.604
0
VERTEX
8
L2D0
10
38757.368
20
321.604
0
VERTEX
8
L2D0
10
38757.368
20
322.604
0
VERTEX
8
L2D0
10
38744.383
20
322.604
0
VERTEX
8
L2D0
10
38744.383
20
324.104
0
VERTEX
8
L2D0
10
38757.368
20
324.104
0
VERTEX
8
L2D0
10
38757.368
20
325.104
0
VERTEX
8
L2D0
10
38744.383
20
325.104
0
VERTEX
8
L2D0
10
38744.383
20
344.104
0
VERTEX
8
L2D0
10
38757.368
20
344.104
0
VERTEX
8
L2D0
10
38757.368
20
345.104
0
VERTEX
8
L2D0
10
38744.383
20
345.104
0
VERTEX
8
L2D0
10
38744.383
20
346.604
0
VERTEX
8
L2D0
10
38757.368
20
346.604
0
VERTEX
8
L2D0
10
38757.368
20
347.604
0
VERTEX
8
L2D0
10
38744.383
20
347.604
0
VERTEX
8
L2D0
10
38744.383
20
349.104
0
VERTEX
8
L2D0
10
38757.368
20
349.104
0
VERTEX
8
L2D0
10
38757.368
20
350.104
0
VERTEX
8
L2D0
10
38744.383
20
350.104
0
VERTEX
8
L2D0
10
38744.383
20
351.604
0
VERTEX
8
L2D0
10
38757.368
20
351.604
0
VERTEX
8
L2D0
10
38757.368
20
352.604
0
VERTEX
8
L2D0
10
38744.383
20
352.604
0
VERTEX
8
L2D0
10
38744.383
20
354.104
0
VERTEX
8
L2D0
10
38757.368
20
354.104
0
VERTEX
8
L2D0
10
38757.368
20
355.104
0
VERTEX
8
L2D0
10
38744.383
20
355.104
0
VERTEX
8
L2D0
10
38744.383
20
362.604
0
VERTEX
8
L2D0
10
38742.868
20
362.604
0
VERTEX
8
L2D0
10
38742.868
20
375.604
0
VERTEX
8
L2D0
10
38386.868
20
375.604
0
VERTEX
8
L2D0
10
38386.868
20
485.58
0
VERTEX
8
L2D0
10
38784.368
20
485.58
0
VERTEX
8
L2D0
10
38784.368
20
159.628
0
SEQEND
0
ENDSEC
0
EOF
