0
SECTION
2
HEADER
9
$ACADVER
1
AC1006
0
ENDSEC
0
SECTION
2
TABLES
0
TABLE
2
LAYER
70
1
0
LAYER
70
0
62
1
6
CONTINUOUS
2
L1D0
0
ENDTAB
0
ENDSEC
0
SECTION
2
BLOCKS
0
ENDSEC
0
SECTION
2
ENTITIES
0
POLYLINE
8
L1D0
70
1
40
0
41
0
66
1
0
VERTEX
8
L1D0
10
1114.152
20
4845.29
0
VERTEX
8
L1D0
10
1114.152
20
5085.29
0
VERTEX
8
L1D0
10
1414.152
20
5085.29
0
VERTEX
8
L1D0
10
1714.152
20
4970.29
0
VERTEX
8
L1D0
10
6714.152
20
4970.29
0
VERTEX
8
L1D0
10
7014.152
20
5085.29
0
VERTEX
8
L1D0
10
7314.152
20
5085.29
0
VERTEX
8
L1D0
10
7314.152
20
4845.29
0
VERTEX
8
L1D0
10
7014.152
20
4845.29
0
VERTEX
8
L1D0
10
6714.152
20
4960.29
0
VERTEX
8
L1D0
10
1714.152
20
4960.29
0
VERTEX
8
L1D0
10
1414.152
20
4845.29
0
SEQEND
0
POLYLINE
8
L1D0
70
1
40
0
41
0
66
1
0
VERTEX
8
L1D0
10
838.476
20
3112.796
0
VERTEX
8
L1D0
10
838.476
20
5229.29
0
VERTEX
8
L1D0
10
7014.152
20
5229.29
0
VERTEX
8
L1D0
10
6843.401
20
5085.29
0
VERTEX
8
L1D0
10
6714.152
20
4976.29
0
VERTEX
8
L1D0
10
1714.152
20
4976.29
0
VERTEX
8
L1D0
10
1414.152
20
5229.29
0
VERTEX
8
L1D0
10
970.152
20
5229.29
0
VERTEX
8
L1D0
10
970.152
20
4701.29
0
VERTEX
8
L1D0
10
1414.152
20
4701.29
0
VERTEX
8
L1D0
10
1702.294
20
4944.29
0
VERTEX
8
L1D0
10
3901.146
20
4944.29
0
VERTEX
8
L1D0
10
3896.561
20
4944.1
0
VERTEX
8
L1D0
10
3891.988
20
4943.721
0
VERTEX
8
L1D0
10
3887.434
20
4943.154
0
VERTEX
8
L1D0
10
3882.908
20
4942.398
0
VERTEX
8
L1D0
10
3878.416
20
4941.457
0
VERTEX
8
L1D0
10
3873.968
20
4940.33
0
VERTEX
8
L1D0
10
3869.57
20
4939.021
0
VERTEX
8
L1D0
10
3865.229
20
4937.531
0
VERTEX
8
L1D0
10
3860.954
20
4935.863
0
VERTEX
8
L1D0
10
3856.752
20
4934.019
0
VERTEX
8
L1D0
10
3852.629
20
4932.004
0
VERTEX
8
L1D0
10
3848.593
20
4929.82
0
VERTEX
8
L1D0
10
3844.651
20
4927.47
0
VERTEX
8
L1D0
10
3840.809
20
4924.96
0
VERTEX
8
L1D0
10
3837.074
20
4922.294
0
VERTEX
8
L1D0
10
3833.453
20
4919.475
0
VERTEX
8
L1D0
10
3829.951
20
4916.509
0
VERTEX
8
L1D0
10
3826.575
20
4913.401
0
VERTEX
8
L1D0
10
3823.33
20
4910.156
0
VERTEX
8
L1D0
10
3820.222
20
4906.78
0
VERTEX
8
L1D0
10
3817.256
20
4903.278
0
VERTEX
8
L1D0
10
3814.437
20
4899.657
0
VERTEX
8
L1D0
10
3811.771
20
4895.922
0
VERTEX
8
L1D0
10
3809.261
20
4892.08
0
VERTEX
8
L1D0
10
3806.911
20
4888.138
0
VERTEX
8
L1D0
10
3804.727
20
4884.102
0
VERTEX
8
L1D0
10
3802.712
20
4879.979
0
VERTEX
8
L1D0
10
3800.868
20
4875.777
0
VERTEX
8
L1D0
10
3799.2
20
4871.502
0
VERTEX
8
L1D0
10
3797.71
20
4867.161
0
VERTEX
8
L1D0
10
3796.401
20
4862.763
0
VERTEX
8
L1D0
10
3795.274
20
4858.315
0
VERTEX
8
L1D0
10
3794.333
20
4853.823
0
VERTEX
8
L1D0
10
3793.577
20
4849.297
0
VERTEX
8
L1D0
10
3793.01
20
4844.743
0
VERTEX
8
L1D0
10
3792.631
20
4840.17
0
VERTEX
8
L1D0
10
3792.441
20
4835.585
0
VERTEX
8
L1D0
10
3792.441
20
4830.075
0
VERTEX
8
L1D0
10
3792.631
20
4825.49
0
VERTEX
8
L1D0
10
3793.01
20
4820.917
0
VERTEX
8
L1D0
10
3793.577
20
4816.363
0
VERTEX
8
L1D0
10
3794.333
20
4811.837
0
VERTEX
8
L1D0
10
3795.274
20
4807.345
0
VERTEX
8
L1D0
10
3796.401
20
4802.897
0
VERTEX
8
L1D0
10
3797.71
20
4798.499
0
VERTEX
8
L1D0
10
3799.2
20
4794.158
0
VERTEX
8
L1D0
10
3800.868
20
4789.883
0
VERTEX
8
L1D0
10
3802.712
20
4785.681
0
VERTEX
8
L1D0
10
3804.727
20
4781.558
0
VERTEX
8
L1D0
10
3806.911
20
4777.522
0
VERTEX
8
L1D0
10
3809.261
20
4773.58
0
VERTEX
8
L1D0
10
3811.771
20
4769.738
0
VERTEX
8
L1D0
10
3814.437
20
4766.003
0
VERTEX
8
L1D0
10
3817.256
20
4762.382
0
VERTEX
8
L1D0
10
3820.222
20
4758.88
0
VERTEX
8
L1D0
10
3823.33
20
4755.504
0
VERTEX
8
L1D0
10
3826.575
20
4752.259
0
VERTEX
8
L1D0
10
3829.951
20
4749.151
0
VERTEX
8
L1D0
10
3833.453
20
4746.185
0
VERTEX
8
L1D0
10
3837.074
20
4743.366
0
VERTEX
8
L1D0
10
3840.809
20
4740.7
0
VERTEX
8
L1D0
10
3844.651
20
4738.19
0
VERTEX
8
L1D0
10
3848.593
20
4735.84
0
VERTEX
8
L1D0
10
3852.629
20
4733.656
0
VERTEX
8
L1D0
10
3856.752
20
4731.641
0
VERTEX
8
L1D0
10
3860.954
20
4729.797
0
VERTEX
8
L1D0
10
3865.229
20
4728.129
0
VERTEX
8
L1D0
10
3869.57
20
4726.639
0
VERTEX
8
L1D0
10
3873.968
20
4725.33
0
VERTEX
8
L1D0
10
3878.416
20
4724.203
0
VERTEX
8
L1D0
10
3882.908
20
4723.262
0
VERTEX
8
L1D0
10
3887.434
20
4722.506
0
VERTEX
8
L1D0
10
3891.988
20
4721.939
0
VERTEX
8
L1D0
10
3896.561
20
4721.56
0
VERTEX
8
L1D0
10
3901.146
20
4721.37
0
VERTEX
8
L1D0
10
3986.785
20
4721.37
0
VERTEX
8
L1D0
10
3990.461
20
4721.218
0
VERTEX
8
L1D0
10
3994.128
20
4720.914
0
VERTEX
8
L1D0
10
3997.779
20
4720.459
0
VERTEX
8
L1D0
10
4001.409
20
4719.853
0
VERTEX
8
L1D0
10
4005.01
20
4719.098
0
VERTEX
8
L1D0
10
4008.577
20
4718.195
0
VERTEX
8
L1D0
10
4012.103
20
4717.145
0
VERTEX
8
L1D0
10
4015.583
20
4715.95
0
VERTEX
8
L1D0
10
4019.011
20
4714.613
0
VERTEX
8
L1D0
10
4022.381
20
4713.135
0
VERTEX
8
L1D0
10
4025.686
20
4711.519
0
VERTEX
8
L1D0
10
4028.922
20
4709.768
0
VERTEX
8
L1D0
10
4032.083
20
4707.884
0
VERTEX
8
L1D0
10
4035.164
20
4705.872
0
VERTEX
8
L1D0
10
4038.158
20
4703.734
0
VERTEX
8
L1D0
10
4041.062
20
4701.474
0
VERTEX
8
L1D0
10
4043.87
20
4699.095
0
VERTEX
8
L1D0
10
4046.577
20
4696.603
0
VERTEX
8
L1D0
10
4049.178
20
4694.002
0
VERTEX
8
L1D0
10
4051.67
20
4691.295
0
VERTEX
8
L1D0
10
4054.049
20
4688.487
0
VERTEX
8
L1D0
10
4056.309
20
4685.583
0
VERTEX
8
L1D0
10
4058.447
20
4682.589
0
VERTEX
8
L1D0
10
4060.459
20
4679.508
0
VERTEX
8
L1D0
10
4062.343
20
4676.347
0
VERTEX
8
L1D0
10
4064.094
20
4673.111
0
VERTEX
8
L1D0
10
4065.71
20
4669.806
0
VERTEX
8
L1D0
10
4067.188
20
4666.436
0
VERTEX
8
L1D0
10
4068.525
20
4663.008
0
VERTEX
8
L1D0
10
4069.72
20
4659.528
0
VERTEX
8
L1D0
10
4070.77
20
4656.002
0
VERTEX
8
L1D0
10
4071.673
20
4652.435
0
VERTEX
8
L1D0
10
4072.428
20
4648.834
0
VERTEX
8
L1D0
10
4073.034
20
4645.204
0
VERTEX
8
L1D0
10
4073.489
20
4641.553
0
VERTEX
8
L1D0
10
4073.793
20
4637.886
0
VERTEX
8
L1D0
10
4073.945
20
4634.21
0
VERTEX
8
L1D0
10
4073.945
20
4630.53
0
VERTEX
8
L1D0
10
4073.793
20
4626.854
0
VERTEX
8
L1D0
10
4073.489
20
4623.187
0
VERTEX
8
L1D0
10
4073.034
20
4619.536
0
VERTEX
8
L1D0
10
4072.428
20
4615.906
0
VERTEX
8
L1D0
10
4071.673
20
4612.305
0
VERTEX
8
L1D0
10
4070.77
20
4608.738
0
VERTEX
8
L1D0
10
4069.72
20
4605.212
0
VERTEX
8
L1D0
10
4068.525
20
4601.732
0
VERTEX
8
L1D0
10
4067.188
20
4598.304
0
VERTEX
8
L1D0
10
4065.71
20
4594.934
0
VERTEX
8
L1D0
10
4064.094
20
4591.629
0
VERTEX
8
L1D0
10
4062.343
20
4588.393
0
VERTEX
8
L1D0
10
4060.459
20
4585.232
0
VERTEX
8
L1D0
10
4058.447
20
4582.151
0
VERTEX
8
L1D0
10
4056.309
20
4579.157
0
VERTEX
8
L1D0
10
4054.049
20
4576.253
0
VERTEX
8
L1D0
10
4051.67
20
4573.445
0
VERTEX
8
L1D0
10
4049.178
20
4570.738
0
VERTEX
8
L1D0
10
4046.577
20
4568.137
0
VERTEX
8
L1D0
10
4043.87
20
4565.645
0
VERTEX
8
L1D0
10
4041.062
20
4563.266
0
VERTEX
8
L1D0
10
4038.158
20
4561.006
0
VERTEX
8
L1D0
10
4035.164
20
4558.868
0
VERTEX
8
L1D0
10
4032.083
20
4556.856
0
VERTEX
8
L1D0
10
4028.922
20
4554.972
0
VERTEX
8
L1D0
10
4025.686
20
4553.221
0
VERTEX
8
L1D0
10
4022.381
20
4551.605
0
VERTEX
8
L1D0
10
4019.011
20
4550.127
0
VERTEX
8
L1D0
10
4015.583
20
4548.79
0
VERTEX
8
L1D0
10
4012.103
20
4547.595
0
VERTEX
8
L1D0
10
4008.577
20
4546.545
0
VERTEX
8
L1D0
10
4005.01
20
4545.642
0
VERTEX
8
L1D0
10
4001.409
20
4544.887
0
VERTEX
8
L1D0
10
3997.779
20
4544.281
0
VERTEX
8
L1D0
10
3994.128
20
4543.826
0
VERTEX
8
L1D0
10
3990.461
20
4543.522
0
VERTEX
8
L1D0
10
3986.785
20
4543.37
0
VERTEX
8
L1D0
10
3619.642
20
4543.37
0
VERTEX
8
L1D0
10
3615.057
20
4543.18
0
VERTEX
8
L1D0
10
3610.484
20
4542.801
0
VERTEX
8
L1D0
10
3605.93
20
4542.234
0
VERTEX
8
L1D0
10
3601.404
20
4541.478
0
VERTEX
8
L1D0
10
3596.912
20
4540.537
0
VERTEX
8
L1D0
10
3592.464
20
4539.41
0
VERTEX
8
L1D0
10
3588.066
20
4538.101
0
VERTEX
8
L1D0
10
3583.725
20
4536.611
0
VERTEX
8
L1D0
10
3579.45
20
4534.943
0
VERTEX
8
L1D0
10
3575.248
20
4533.099
0
VERTEX
8
L1D0
10
3571.125
20
4531.084
0
VERTEX
8
L1D0
10
3567.089
20
4528.9
0
VERTEX
8
L1D0
10
3563.147
20
4526.55
0
VERTEX
8
L1D0
10
3559.305
20
4524.04
0
VERTEX
8
L1D0
10
3555.57
20
4521.374
0
VERTEX
8
L1D0
10
3551.949
20
4518.555
0
VERTEX
8
L1D0
10
3548.447
20
4515.589
0
VERTEX
8
L1D0
10
3545.071
20
4512.481
0
VERTEX
8
L1D0
10
3541.826
20
4509.236
0
VERTEX
8
L1D0
10
3538.718
20
4505.86
0
VERTEX
8
L1D0
10
3535.752
20
4502.358
0
VERTEX
8
L1D0
10
3532.933
20
4498.737
0
VERTEX
8
L1D0
10
3530.267
20
4495.002
0
VERTEX
8
L1D0
10
3527.757
20
4491.16
0
VERTEX
8
L1D0
10
3525.407
20
4487.218
0
VERTEX
8
L1D0
10
3523.223
20
4483.182
0
VERTEX
8
L1D0
10
3521.208
20
4479.059
0
VERTEX
8
L1D0
10
3519.364
20
4474.857
0
VERTEX
8
L1D0
10
3517.696
20
4470.582
0
VERTEX
8
L1D0
10
3516.206
20
4466.241
0
VERTEX
8
L1D0
10
3514.897
20
4461.843
0
VERTEX
8
L1D0
10
3513.77
20
4457.395
0
VERTEX
8
L1D0
10
3512.829
20
4452.903
0
VERTEX
8
L1D0
10
3512.073
20
4448.377
0
VERTEX
8
L1D0
10
3511.506
20
4443.823
0
VERTEX
8
L1D0
10
3511.127
20
4439.25
0
VERTEX
8
L1D0
10
3510.937
20
4434.665
0
VERTEX
8
L1D0
10
3510.937
20
4430.075
0
VERTEX
8
L1D0
10
3511.127
20
4425.49
0
VERTEX
8
L1D0
10
3511.506
20
4420.917
0
VERTEX
8
L1D0
10
3512.073
20
4416.363
0
VERTEX
8
L1D0
10
3512.829
20
4411.837
0
VERTEX
8
L1D0
10
3513.77
20
4407.345
0
VERTEX
8
L1D0
10
3514.897
20
4402.897
0
VERTEX
8
L1D0
10
3516.206
20
4398.499
0
VERTEX
8
L1D0
10
3517.696
20
4394.158
0
VERTEX
8
L1D0
10
3519.364
20
4389.883
0
VERTEX
8
L1D0
10
3521.208
20
4385.681
0
VERTEX
8
L1D0
10
3523.223
20
4381.558
0
VERTEX
8
L1D0
10
3525.407
20
4377.522
0
VERTEX
8
L1D0
10
3527.757
20
4373.58
0
VERTEX
8
L1D0
10
3530.267
20
4369.738
0
VERTEX
8
L1D0
10
3532.933
20
4366.003
0
VERTEX
8
L1D0
10
3535.752
20
4362.382
0
VERTEX
8
L1D0
10
3538.718
20
4358.88
0
VERTEX
8
L1D0
10
3541.826
20
4355.504
0
VERTEX
8
L1D0
10
3545.071
20
4352.259
0
VERTEX
8
L1D0
10
3548.447
20
4349.151
0
VERTEX
8
L1D0
10
3551.949
20
4346.185
0
VERTEX
8
L1D0
10
3555.57
20
4343.366
0
VERTEX
8
L1D0
10
3559.305
20
4340.7
0
VERTEX
8
L1D0
10
3563.147
20
4338.19
0
VERTEX
8
L1D0
10
3567.089
20
4335.84
0
VERTEX
8
L1D0
10
3571.125
20
4333.656
0
VERTEX
8
L1D0
10
3575.248
20
4331.641
0
VERTEX
8
L1D0
10
3579.45
20
4329.797
0
VERTEX
8
L1D0
10
3583.725
20
4328.129
0
VERTEX
8
L1D0
10
3588.066
20
4326.639
0
VERTEX
8
L1D0
10
3592.464
20
4325.33
0
VERTEX
8
L1D0
10
3596.912
20
4324.203
0
VERTEX
8
L1D0
10
3601.404
20
4323.262
0
VERTEX
8
L1D0
10
3605.93
20
4322.506
0
VERTEX
8
L1D0
10
3610.484
20
4321.939
0
VERTEX
8
L1D0
10
3615.057
20
4321.56
0
VERTEX
8
L1D0
10
3619.642
20
4321.37
0
VERTEX
8
L1D0
10
3986.785
20
4321.37
0
VERTEX
8
L1D0
10
3990.461
20
4321.218
0
VERTEX
8
L1D0
10
3994.128
20
4320.914
0
VERTEX
8
L1D0
10
3997.779
20
4320.459
0
VERTEX
8
L1D0
10
4001.409
20
4319.853
0
VERTEX
8
L1D0
10
4005.01
20
4319.098
0
VERTEX
8
L1D0
10
4008.577
20
4318.195
0
VERTEX
8
L1D0
10
4012.103
20
4317.145
0
VERTEX
8
L1D0
10
4015.583
20
4315.95
0
VERTEX
8
L1D0
10
4019.011
20
4314.613
0
VERTEX
8
L1D0
10
4022.381
20
4313.135
0
VERTEX
8
L1D0
10
4025.686
20
4311.519
0
VERTEX
8
L1D0
10
4028.922
20
4309.768
0
VERTEX
8
L1D0
10
4032.083
20
4307.884
0
VERTEX
8
L1D0
10
4035.164
20
4305.872
0
VERTEX
8
L1D0
10
4038.158
20
4303.734
0
VERTEX
8
L1D0
10
4041.062
20
4301.474
0
VERTEX
8
L1D0
10
4043.87
20
4299.095
0
VERTEX
8
L1D0
10
4046.577
20
4296.603
0
VERTEX
8
L1D0
10
4049.178
20
4294.002
0
VERTEX
8
L1D0
10
4051.67
20
4291.295
0
VERTEX
8
L1D0
10
4054.049
20
4288.487
0
VERTEX
8
L1D0
10
4056.309
20
4285.583
0
VERTEX
8
L1D0
10
4058.447
20
4282.589
0
VERTEX
8
L1D0
10
4060.459
20
4279.508
0
VERTEX
8
L1D0
10
4062.343
20
4276.347
0
VERTEX
8
L1D0
10
4064.094
20
4273.111
0
VERTEX
8
L1D0
10
4065.71
20
4269.806
0
VERTEX
8
L1D0
10
4067.188
20
4266.436
0
VERTEX
8
L1D0
10
4068.525
20
4263.008
0
VERTEX
8
L1D0
10
4069.72
20
4259.528
0
VERTEX
8
L1D0
10
4070.77
20
4256.002
0
VERTEX
8
L1D0
10
4071.673
20
4252.435
0
VERTEX
8
L1D0
10
4072.428
20
4248.834
0
VERTEX
8
L1D0
10
4073.034
20
4245.204
0
VERTEX
8
L1D0
10
4073.489
20
4241.553
0
VERTEX
8
L1D0
10
4073.793
20
4237.886
0
VERTEX
8
L1D0
10
4073.945
20
4234.21
0
VERTEX
8
L1D0
10
4073.945
20
4230.53
0
VERTEX
8
L1D0
10
4073.793
20
4226.854
0
VERTEX
8
L1D0
10
4073.489
20
4223.187
0
VERTEX
8
L1D0
10
4073.034
20
4219.536
0
VERTEX
8
L1D0
10
4072.428
20
4215.906
0
VERTEX
8
L1D0
10
4071.673
20
4212.305
0
VERTEX
8
L1D0
10
4070.77
20
4208.738
0
VERTEX
8
L1D0
10
4069.72
20
4205.212
0
VERTEX
8
L1D0
10
4068.525
20
4201.732
0
VERTEX
8
L1D0
10
4067.188
20
4198.304
0
VERTEX
8
L1D0
10
4065.71
20
4194.934
0
VERTEX
8
L1D0
10
4064.094
20
4191.629
0
VERTEX
8
L1D0
10
4062.343
20
4188.393
0
VERTEX
8
L1D0
10
4060.459
20
4185.232
0
VERTEX
8
L1D0
10
4058.447
20
4182.151
0
VERTEX
8
L1D0
10
4056.309
20
4179.157
0
VERTEX
8
L1D0
10
4054.049
20
4176.253
0
VERTEX
8
L1D0
10
4051.67
20
4173.445
0
VERTEX
8
L1D0
10
4049.178
20
4170.738
0
VERTEX
8
L1D0
10
4046.577
20
4168.137
0
VERTEX
8
L1D0
10
4043.87
20
4165.645
0
VERTEX
8
L1D0
10
4041.062
20
4163.266
0
VERTEX
8
L1D0
10
4038.158
20
4161.006
0
VERTEX
8
L1D0
10
4035.164
20
4158.868
0
VERTEX
8
L1D0
10
4032.083
20
4156.856
0
VERTEX
8
L1D0
10
4028.922
20
4154.972
0
VERTEX
8
L1D0
10
4025.686
20
4153.221
0
VERTEX
8
L1D0
10
4022.381
20
4151.605
0
VERTEX
8
L1D0
10
4019.011
20
4150.127
0
VERTEX
8
L1D0
10
4015.583
20
4148.79
0
VERTEX
8
L1D0
10
4012.103
20
4147.595
0
VERTEX
8
L1D0
10
4008.577
20
4146.545
0
VERTEX
8
L1D0
10
4005.01
20
4145.642
0
VERTEX
8
L1D0
10
4001.409
20
4144.887
0
VERTEX
8
L1D0
10
3997.779
20
4144.281
0
VERTEX
8
L1D0
10
3994.128
20
4143.826
0
VERTEX
8
L1D0
10
3990.461
20
4143.522
0
VERTEX
8
L1D0
10
3986.785
20
4143.37
0
VERTEX
8
L1D0
10
3619.642
20
4143.37
0
VERTEX
8
L1D0
10
3615.057
20
4143.18
0
VERTEX
8
L1D0
10
3610.484
20
4142.801
0
VERTEX
8
L1D0
10
3605.93
20
4142.234
0
VERTEX
8
L1D0
10
3601.404
20
4141.478
0
VERTEX
8
L1D0
10
3596.912
20
4140.537
0
VERTEX
8
L1D0
10
3592.464
20
4139.41
0
VERTEX
8
L1D0
10
3588.066
20
4138.101
0
VERTEX
8
L1D0
10
3583.725
20
4136.611
0
VERTEX
8
L1D0
10
3579.45
20
4134.943
0
VERTEX
8
L1D0
10
3575.248
20
4133.099
0
VERTEX
8
L1D0
10
3571.125
20
4131.084
0
VERTEX
8
L1D0
10
3567.089
20
4128.9
0
VERTEX
8
L1D0
10
3563.147
20
4126.55
0
VERTEX
8
L1D0
10
3559.305
20
4124.04
0
VERTEX
8
L1D0
10
3555.57
20
4121.374
0
VERTEX
8
L1D0
10
3551.949
20
4118.555
0
VERTEX
8
L1D0
10
3548.447
20
4115.589
0
VERTEX
8
L1D0
10
3545.071
20
4112.481
0
VERTEX
8
L1D0
10
3541.826
20
4109.236
0
VERTEX
8
L1D0
10
3538.718
20
4105.86
0
VERTEX
8
L1D0
10
3535.752
20
4102.358
0
VERTEX
8
L1D0
10
3532.933
20
4098.737
0
VERTEX
8
L1D0
10
3530.267
20
4095.002
0
VERTEX
8
L1D0
10
3527.757
20
4091.16
0
VERTEX
8
L1D0
10
3525.407
20
4087.218
0
VERTEX
8
L1D0
10
3523.223
20
4083.182
0
VERTEX
8
L1D0
10
3521.208
20
4079.059
0
VERTEX
8
L1D0
10
3519.364
20
4074.857
0
VERTEX
8
L1D0
10
3517.696
20
4070.582
0
VERTEX
8
L1D0
10
3516.206
20
4066.241
0
VERTEX
8
L1D0
10
3514.897
20
4061.843
0
VERTEX
8
L1D0
10
3513.77
20
4057.395
0
VERTEX
8
L1D0
10
3512.829
20
4052.903
0
VERTEX
8
L1D0
10
3512.073
20
4048.377
0
VERTEX
8
L1D0
10
3511.506
20
4043.823
0
VERTEX
8
L1D0
10
3511.127
20
4039.25
0
VERTEX
8
L1D0
10
3510.937
20
4034.665
0
VERTEX
8
L1D0
10
3510.937
20
4030.075
0
VERTEX
8
L1D0
10
3511.127
20
4025.49
0
VERTEX
8
L1D0
10
3511.506
20
4020.917
0
VERTEX
8
L1D0
10
3512.073
20
4016.363
0
VERTEX
8
L1D0
10
3512.829
20
4011.837
0
VERTEX
8
L1D0
10
3513.77
20
4007.345
0
VERTEX
8
L1D0
10
3514.897
20
4002.897
0
VERTEX
8
L1D0
10
3516.206
20
3998.499
0
VERTEX
8
L1D0
10
3517.696
20
3994.158
0
VERTEX
8
L1D0
10
3519.364
20
3989.883
0
VERTEX
8
L1D0
10
3521.208
20
3985.681
0
VERTEX
8
L1D0
10
3523.223
20
3981.558
0
VERTEX
8
L1D0
10
3525.407
20
3977.522
0
VERTEX
8
L1D0
10
3527.757
20
3973.58
0
VERTEX
8
L1D0
10
3530.267
20
3969.738
0
VERTEX
8
L1D0
10
3532.933
20
3966.003
0
VERTEX
8
L1D0
10
3535.752
20
3962.382
0
VERTEX
8
L1D0
10
3538.718
20
3958.88
0
VERTEX
8
L1D0
10
3541.826
20
3955.504
0
VERTEX
8
L1D0
10
3545.071
20
3952.259
0
VERTEX
8
L1D0
10
3548.447
20
3949.151
0
VERTEX
8
L1D0
10
3551.949
20
3946.185
0
VERTEX
8
L1D0
10
3555.57
20
3943.366
0
VERTEX
8
L1D0
10
3559.305
20
3940.7
0
VERTEX
8
L1D0
10
3563.147
20
3938.19
0
VERTEX
8
L1D0
10
3567.089
20
3935.84
0
VERTEX
8
L1D0
10
3571.125
20
3933.656
0
VERTEX
8
L1D0
10
3575.248
20
3931.641
0
VERTEX
8
L1D0
10
3579.45
20
3929.797
0
VERTEX
8
L1D0
10
3583.725
20
3928.129
0
VERTEX
8
L1D0
10
3588.066
20
3926.639
0
VERTEX
8
L1D0
10
3592.464
20
3925.33
0
VERTEX
8
L1D0
10
3596.912
20
3924.203
0
VERTEX
8
L1D0
10
3601.404
20
3923.262
0
VERTEX
8
L1D0
10
3605.93
20
3922.506
0
VERTEX
8
L1D0
10
3610.484
20
3921.939
0
VERTEX
8
L1D0
10
3615.057
20
3921.56
0
VERTEX
8
L1D0
10
3619.642
20
3921.37
0
VERTEX
8
L1D0
10
3986.785
20
3921.37
0
VERTEX
8
L1D0
10
3990.461
20
3921.218
0
VERTEX
8
L1D0
10
3994.128
20
3920.914
0
VERTEX
8
L1D0
10
3997.779
20
3920.459
0
VERTEX
8
L1D0
10
4001.409
20
3919.853
0
VERTEX
8
L1D0
10
4005.01
20
3919.098
0
VERTEX
8
L1D0
10
4008.577
20
3918.195
0
VERTEX
8
L1D0
10
4012.103
20
3917.145
0
VERTEX
8
L1D0
10
4015.583
20
3915.95
0
VERTEX
8
L1D0
10
4019.011
20
3914.613
0
VERTEX
8
L1D0
10
4022.381
20
3913.135
0
VERTEX
8
L1D0
10
4025.686
20
3911.519
0
VERTEX
8
L1D0
10
4028.922
20
3909.768
0
VERTEX
8
L1D0
10
4032.083
20
3907.884
0
VERTEX
8
L1D0
10
4035.164
20
3905.872
0
VERTEX
8
L1D0
10
4038.158
20
3903.734
0
VERTEX
8
L1D0
10
4041.062
20
3901.474
0
VERTEX
8
L1D0
10
4043.87
20
3899.095
0
VERTEX
8
L1D0
10
4046.577
20
3896.603
0
VERTEX
8
L1D0
10
4049.178
20
3894.002
0
VERTEX
8
L1D0
10
4051.67
20
3891.295
0
VERTEX
8
L1D0
10
4054.049
20
3888.487
0
VERTEX
8
L1D0
10
4056.309
20
3885.583
0
VERTEX
8
L1D0
10
4058.447
20
3882.589
0
VERTEX
8
L1D0
10
4060.459
20
3879.508
0
VERTEX
8
L1D0
10
4062.343
20
3876.347
0
VERTEX
8
L1D0
10
4064.094
20
3873.111
0
VERTEX
8
L1D0
10
4065.71
20
3869.806
0
VERTEX
8
L1D0
10
4067.188
20
3866.436
0
VERTEX
8
L1D0
10
4068.525
20
3863.008
0
VERTEX
8
L1D0
10
4069.72
20
3859.528
0
VERTEX
8
L1D0
10
4070.77
20
3856.002
0
VERTEX
8
L1D0
10
4071.673
20
3852.435
0
VERTEX
8
L1D0
10
4072.428
20
3848.834
0
VERTEX
8
L1D0
10
4073.034
20
3845.204
0
VERTEX
8
L1D0
10
4073.489
20
3841.553
0
VERTEX
8
L1D0
10
4073.793
20
3837.886
0
VERTEX
8
L1D0
10
4073.945
20
3834.21
0
VERTEX
8
L1D0
10
4073.945
20
3830.53
0
VERTEX
8
L1D0
10
4073.793
20
3826.854
0
VERTEX
8
L1D0
10
4073.489
20
3823.187
0
VERTEX
8
L1D0
10
4073.034
20
3819.536
0
VERTEX
8
L1D0
10
4072.428
20
3815.906
0
VERTEX
8
L1D0
10
4071.673
20
3812.305
0
VERTEX
8
L1D0
10
4070.77
20
3808.738
0
VERTEX
8
L1D0
10
4069.72
20
3805.212
0
VERTEX
8
L1D0
10
4068.525
20
3801.732
0
VERTEX
8
L1D0
10
4067.188
20
3798.304
0
VERTEX
8
L1D0
10
4065.71
20
3794.934
0
VERTEX
8
L1D0
10
4064.094
20
3791.629
0
VERTEX
8
L1D0
10
4062.343
20
3788.393
0
VERTEX
8
L1D0
10
4060.459
20
3785.232
0
VERTEX
8
L1D0
10
4058.447
20
3782.151
0
VERTEX
8
L1D0
10
4056.309
20
3779.157
0
VERTEX
8
L1D0
10
4054.049
20
3776.253
0
VERTEX
8
L1D0
10
4051.67
20
3773.445
0
VERTEX
8
L1D0
10
4049.178
20
3770.738
0
VERTEX
8
L1D0
10
4046.577
20
3768.137
0
VERTEX
8
L1D0
10
4043.87
20
3765.645
0
VERTEX
8
L1D0
10
4041.062
20
3763.266
0
VERTEX
8
L1D0
10
4038.158
20
3761.006
0
VERTEX
8
L1D0
10
4035.164
20
3758.868
0
VERTEX
8
L1D0
10
4032.083
20
3756.856
0
VERTEX
8
L1D0
10
4028.922
20
3754.972
0
VERTEX
8
L1D0
10
4025.686
20
3753.221
0
VERTEX
8
L1D0
10
4022.381
20
3751.605
0
VERTEX
8
L1D0
10
4019.011
20
3750.127
0
VERTEX
8
L1D0
10
4015.583
20
3748.79
0
VERTEX
8
L1D0
10
4012.103
20
3747.595
0
VERTEX
8
L1D0
10
4008.577
20
3746.545
0
VERTEX
8
L1D0
10
4005.01
20
3745.642
0
VERTEX
8
L1D0
10
4001.409
20
3744.887
0
VERTEX
8
L1D0
10
3997.779
20
3744.281
0
VERTEX
8
L1D0
10
3994.128
20
3743.826
0
VERTEX
8
L1D0
10
3990.461
20
3743.522
0
VERTEX
8
L1D0
10
3986.785
20
3743.37
0
VERTEX
8
L1D0
10
3901.146
20
3743.37
0
VERTEX
8
L1D0
10
3896.561
20
3743.18
0
VERTEX
8
L1D0
10
3891.988
20
3742.801
0
VERTEX
8
L1D0
10
3887.434
20
3742.234
0
VERTEX
8
L1D0
10
3882.908
20
3741.478
0
VERTEX
8
L1D0
10
3878.416
20
3740.537
0
VERTEX
8
L1D0
10
3873.968
20
3739.41
0
VERTEX
8
L1D0
10
3869.57
20
3738.101
0
VERTEX
8
L1D0
10
3865.229
20
3736.611
0
VERTEX
8
L1D0
10
3860.954
20
3734.943
0
VERTEX
8
L1D0
10
3856.752
20
3733.099
0
VERTEX
8
L1D0
10
3852.629
20
3731.084
0
VERTEX
8
L1D0
10
3848.593
20
3728.9
0
VERTEX
8
L1D0
10
3844.651
20
3726.55
0
VERTEX
8
L1D0
10
3840.809
20
3724.04
0
VERTEX
8
L1D0
10
3837.074
20
3721.374
0
VERTEX
8
L1D0
10
3833.453
20
3718.555
0
VERTEX
8
L1D0
10
3829.951
20
3715.589
0
VERTEX
8
L1D0
10
3826.575
20
3712.481
0
VERTEX
8
L1D0
10
3823.33
20
3709.236
0
VERTEX
8
L1D0
10
3820.222
20
3705.86
0
VERTEX
8
L1D0
10
3817.256
20
3702.358
0
VERTEX
8
L1D0
10
3814.437
20
3698.737
0
VERTEX
8
L1D0
10
3811.771
20
3695.002
0
VERTEX
8
L1D0
10
3809.261
20
3691.16
0
VERTEX
8
L1D0
10
3806.911
20
3687.218
0
VERTEX
8
L1D0
10
3804.727
20
3683.182
0
VERTEX
8
L1D0
10
3802.712
20
3679.059
0
VERTEX
8
L1D0
10
3800.868
20
3674.857
0
VERTEX
8
L1D0
10
3799.2
20
3670.582
0
VERTEX
8
L1D0
10
3797.71
20
3666.241
0
VERTEX
8
L1D0
10
3796.401
20
3661.843
0
VERTEX
8
L1D0
10
3795.274
20
3657.395
0
VERTEX
8
L1D0
10
3794.333
20
3652.903
0
VERTEX
8
L1D0
10
3793.577
20
3648.377
0
VERTEX
8
L1D0
10
3793.01
20
3643.823
0
VERTEX
8
L1D0
10
3792.631
20
3639.25
0
VERTEX
8
L1D0
10
3792.441
20
3634.665
0
VERTEX
8
L1D0
10
3792.441
20
3626.25
0
VERTEX
8
L1D0
10
3814.441
20
3626.25
0
VERTEX
8
L1D0
10
3814.441
20
3634.21
0
VERTEX
8
L1D0
10
3814.593
20
3637.886
0
VERTEX
8
L1D0
10
3814.897
20
3641.553
0
VERTEX
8
L1D0
10
3815.352
20
3645.204
0
VERTEX
8
L1D0
10
3815.958
20
3648.834
0
VERTEX
8
L1D0
10
3816.713
20
3652.435
0
VERTEX
8
L1D0
10
3817.616
20
3656.002
0
VERTEX
8
L1D0
10
3818.666
20
3659.528
0
VERTEX
8
L1D0
10
3819.861
20
3663.008
0
VERTEX
8
L1D0
10
3821.198
20
3666.436
0
VERTEX
8
L1D0
10
3822.676
20
3669.806
0
VERTEX
8
L1D0
10
3824.292
20
3673.111
0
VERTEX
8
L1D0
10
3826.043
20
3676.347
0
VERTEX
8
L1D0
10
3827.927
20
3679.508
0
VERTEX
8
L1D0
10
3829.939
20
3682.589
0
VERTEX
8
L1D0
10
3832.077
20
3685.583
0
VERTEX
8
L1D0
10
3834.337
20
3688.487
0
VERTEX
8
L1D0
10
3836.716
20
3691.295
0
VERTEX
8
L1D0
10
3839.208
20
3694.002
0
VERTEX
8
L1D0
10
3841.809
20
3696.603
0
VERTEX
8
L1D0
10
3844.516
20
3699.095
0
VERTEX
8
L1D0
10
3847.324
20
3701.474
0
VERTEX
8
L1D0
10
3850.228
20
3703.734
0
VERTEX
8
L1D0
10
3853.222
20
3705.872
0
VERTEX
8
L1D0
10
3856.303
20
3707.884
0
VERTEX
8
L1D0
10
3859.464
20
3709.768
0
VERTEX
8
L1D0
10
3862.7
20
3711.519
0
VERTEX
8
L1D0
10
3866.005
20
3713.135
0
VERTEX
8
L1D0
10
3869.375
20
3714.613
0
VERTEX
8
L1D0
10
3872.803
20
3715.95
0
VERTEX
8
L1D0
10
3876.283
20
3717.145
0
VERTEX
8
L1D0
10
3879.809
20
3718.195
0
VERTEX
8
L1D0
10
3883.376
20
3719.098
0
VERTEX
8
L1D0
10
3886.977
20
3719.853
0
VERTEX
8
L1D0
10
3890.607
20
3720.459
0
VERTEX
8
L1D0
10
3894.258
20
3720.914
0
VERTEX
8
L1D0
10
3897.925
20
3721.218
0
VERTEX
8
L1D0
10
3901.601
20
3721.37
0
VERTEX
8
L1D0
10
3987.24
20
3721.37
0
VERTEX
8
L1D0
10
3991.825
20
3721.56
0
VERTEX
8
L1D0
10
3996.398
20
3721.939
0
VERTEX
8
L1D0
10
4000.952
20
3722.506
0
VERTEX
8
L1D0
10
4005.478
20
3723.262
0
VERTEX
8
L1D0
10
4009.97
20
3724.203
0
VERTEX
8
L1D0
10
4014.418
20
3725.33
0
VERTEX
8
L1D0
10
4018.816
20
3726.639
0
VERTEX
8
L1D0
10
4023.157
20
3728.129
0
VERTEX
8
L1D0
10
4027.432
20
3729.797
0
VERTEX
8
L1D0
10
4031.634
20
3731.641
0
VERTEX
8
L1D0
10
4035.757
20
3733.656
0
VERTEX
8
L1D0
10
4039.793
20
3735.84
0
VERTEX
8
L1D0
10
4043.735
20
3738.19
0
VERTEX
8
L1D0
10
4047.577
20
3740.7
0
VERTEX
8
L1D0
10
4051.312
20
3743.366
0
VERTEX
8
L1D0
10
4054.933
20
3746.185
0
VERTEX
8
L1D0
10
4058.435
20
3749.151
0
VERTEX
8
L1D0
10
4061.811
20
3752.259
0
VERTEX
8
L1D0
10
4065.056
20
3755.504
0
VERTEX
8
L1D0
10
4068.164
20
3758.88
0
VERTEX
8
L1D0
10
4071.13
20
3762.382
0
VERTEX
8
L1D0
10
4073.949
20
3766.003
0
VERTEX
8
L1D0
10
4076.615
20
3769.738
0
VERTEX
8
L1D0
10
4079.125
20
3773.58
0
VERTEX
8
L1D0
10
4081.475
20
3777.522
0
VERTEX
8
L1D0
10
4083.659
20
3781.558
0
VERTEX
8
L1D0
10
4085.674
20
3785.681
0
VERTEX
8
L1D0
10
4087.518
20
3789.883
0
VERTEX
8
L1D0
10
4089.186
20
3794.158
0
VERTEX
8
L1D0
10
4090.676
20
3798.499
0
VERTEX
8
L1D0
10
4091.985
20
3802.897
0
VERTEX
8
L1D0
10
4093.112
20
3807.345
0
VERTEX
8
L1D0
10
4094.053
20
3811.837
0
VERTEX
8
L1D0
10
4094.809
20
3816.363
0
VERTEX
8
L1D0
10
4095.376
20
3820.917
0
VERTEX
8
L1D0
10
4095.755
20
3825.49
0
VERTEX
8
L1D0
10
4095.945
20
3830.075
0
VERTEX
8
L1D0
10
4095.945
20
3834.665
0
VERTEX
8
L1D0
10
4095.755
20
3839.25
0
VERTEX
8
L1D0
10
4095.376
20
3843.823
0
VERTEX
8
L1D0
10
4094.809
20
3848.377
0
VERTEX
8
L1D0
10
4094.053
20
3852.903
0
VERTEX
8
L1D0
10
4093.112
20
3857.395
0
VERTEX
8
L1D0
10
4091.985
20
3861.843
0
VERTEX
8
L1D0
10
4090.676
20
3866.241
0
VERTEX
8
L1D0
10
4089.186
20
3870.582
0
VERTEX
8
L1D0
10
4087.518
20
3874.857
0
VERTEX
8
L1D0
10
4085.674
20
3879.059
0
VERTEX
8
L1D0
10
4083.659
20
3883.182
0
VERTEX
8
L1D0
10
4081.475
20
3887.218
0
VERTEX
8
L1D0
10
4079.125
20
3891.16
0
VERTEX
8
L1D0
10
4076.615
20
3895.002
0
VERTEX
8
L1D0
10
4073.949
20
3898.737
0
VERTEX
8
L1D0
10
4071.13
20
3902.358
0
VERTEX
8
L1D0
10
4068.164
20
3905.86
0
VERTEX
8
L1D0
10
4065.056
20
3909.236
0
VERTEX
8
L1D0
10
4061.811
20
3912.481
0
VERTEX
8
L1D0
10
4058.435
20
3915.589
0
VERTEX
8
L1D0
10
4054.933
20
3918.555
0
VERTEX
8
L1D0
10
4051.312
20
3921.374
0
VERTEX
8
L1D0
10
4047.577
20
3924.04
0
VERTEX
8
L1D0
10
4043.735
20
3926.55
0
VERTEX
8
L1D0
10
4039.793
20
3928.9
0
VERTEX
8
L1D0
10
4035.757
20
3931.084
0
VERTEX
8
L1D0
10
4031.634
20
3933.099
0
VERTEX
8
L1D0
10
4027.432
20
3934.943
0
VERTEX
8
L1D0
10
4023.157
20
3936.611
0
VERTEX
8
L1D0
10
4018.816
20
3938.101
0
VERTEX
8
L1D0
10
4014.418
20
3939.41
0
VERTEX
8
L1D0
10
4009.97
20
3940.537
0
VERTEX
8
L1D0
10
4005.478
20
3941.478
0
VERTEX
8
L1D0
10
4000.952
20
3942.234
0
VERTEX
8
L1D0
10
3996.398
20
3942.801
0
VERTEX
8
L1D0
10
3991.825
20
3943.18
0
VERTEX
8
L1D0
10
3987.24
20
3943.37
0
VERTEX
8
L1D0
10
3620.097
20
3943.37
0
VERTEX
8
L1D0
10
3616.421
20
3943.522
0
VERTEX
8
L1D0
10
3612.754
20
3943.826
0
VERTEX
8
L1D0
10
3609.103
20
3944.281
0
VERTEX
8
L1D0
10
3605.473
20
3944.887
0
VERTEX
8
L1D0
10
3601.872
20
3945.642
0
VERTEX
8
L1D0
10
3598.305
20
3946.545
0
VERTEX
8
L1D0
10
3594.779
20
3947.595
0
VERTEX
8
L1D0
10
3591.299
20
3948.79
0
VERTEX
8
L1D0
10
3587.871
20
3950.127
0
VERTEX
8
L1D0
10
3584.501
20
3951.605
0
VERTEX
8
L1D0
10
3581.196
20
3953.221
0
VERTEX
8
L1D0
10
3577.96
20
3954.972
0
VERTEX
8
L1D0
10
3574.799
20
3956.856
0
VERTEX
8
L1D0
10
3571.718
20
3958.868
0
VERTEX
8
L1D0
10
3568.724
20
3961.006
0
VERTEX
8
L1D0
10
3565.82
20
3963.266
0
VERTEX
8
L1D0
10
3563.012
20
3965.645
0
VERTEX
8
L1D0
10
3560.305
20
3968.137
0
VERTEX
8
L1D0
10
3557.704
20
3970.738
0
VERTEX
8
L1D0
10
3555.212
20
3973.445
0
VERTEX
8
L1D0
10
3552.833
20
3976.253
0
VERTEX
8
L1D0
10
3550.573
20
3979.157
0
VERTEX
8
L1D0
10
3548.435
20
3982.151
0
VERTEX
8
L1D0
10
3546.423
20
3985.232
0
VERTEX
8
L1D0
10
3544.539
20
3988.393
0
VERTEX
8
L1D0
10
3542.788
20
3991.629
0
VERTEX
8
L1D0
10
3541.172
20
3994.934
0
VERTEX
8
L1D0
10
3539.694
20
3998.304
0
VERTEX
8
L1D0
10
3538.357
20
4001.732
0
VERTEX
8
L1D0
10
3537.162
20
4005.212
0
VERTEX
8
L1D0
10
3536.112
20
4008.738
0
VERTEX
8
L1D0
10
3535.209
20
4012.305
0
VERTEX
8
L1D0
10
3534.454
20
4015.906
0
VERTEX
8
L1D0
10
3533.848
20
4019.536
0
VERTEX
8
L1D0
10
3533.393
20
4023.187
0
VERTEX
8
L1D0
10
3533.089
20
4026.854
0
VERTEX
8
L1D0
10
3532.937
20
4030.53
0
VERTEX
8
L1D0
10
3532.937
20
4034.21
0
VERTEX
8
L1D0
10
3533.089
20
4037.886
0
VERTEX
8
L1D0
10
3533.393
20
4041.553
0
VERTEX
8
L1D0
10
3533.848
20
4045.204
0
VERTEX
8
L1D0
10
3534.454
20
4048.834
0
VERTEX
8
L1D0
10
3535.209
20
4052.435
0
VERTEX
8
L1D0
10
3536.112
20
4056.002
0
VERTEX
8
L1D0
10
3537.162
20
4059.528
0
VERTEX
8
L1D0
10
3538.357
20
4063.008
0
VERTEX
8
L1D0
10
3539.694
20
4066.436
0
VERTEX
8
L1D0
10
3541.172
20
4069.806
0
VERTEX
8
L1D0
10
3542.788
20
4073.111
0
VERTEX
8
L1D0
10
3544.539
20
4076.347
0
VERTEX
8
L1D0
10
3546.423
20
4079.508
0
VERTEX
8
L1D0
10
3548.435
20
4082.589
0
VERTEX
8
L1D0
10
3550.573
20
4085.583
0
VERTEX
8
L1D0
10
3552.833
20
4088.487
0
VERTEX
8
L1D0
10
3555.212
20
4091.295
0
VERTEX
8
L1D0
10
3557.704
20
4094.002
0
VERTEX
8
L1D0
10
3560.305
20
4096.603
0
VERTEX
8
L1D0
10
3563.012
20
4099.095
0
VERTEX
8
L1D0
10
3565.82
20
4101.474
0
VERTEX
8
L1D0
10
3568.724
20
4103.734
0
VERTEX
8
L1D0
10
3571.718
20
4105.872
0
VERTEX
8
L1D0
10
3574.799
20
4107.884
0
VERTEX
8
L1D0
10
3577.96
20
4109.768
0
VERTEX
8
L1D0
10
3581.196
20
4111.519
0
VERTEX
8
L1D0
10
3584.501
20
4113.135
0
VERTEX
8
L1D0
10
3587.871
20
4114.613
0
VERTEX
8
L1D0
10
3591.299
20
4115.95
0
VERTEX
8
L1D0
10
3594.779
20
4117.145
0
VERTEX
8
L1D0
10
3598.305
20
4118.195
0
VERTEX
8
L1D0
10
3601.872
20
4119.098
0
VERTEX
8
L1D0
10
3605.473
20
4119.853
0
VERTEX
8
L1D0
10
3609.103
20
4120.459
0
VERTEX
8
L1D0
10
3612.754
20
4120.914
0
VERTEX
8
L1D0
10
3616.421
20
4121.218
0
VERTEX
8
L1D0
10
3620.097
20
4121.37
0
VERTEX
8
L1D0
10
3987.24
20
4121.37
0
VERTEX
8
L1D0
10
3991.825
20
4121.56
0
VERTEX
8
L1D0
10
3996.398
20
4121.939
0
VERTEX
8
L1D0
10
4000.952
20
4122.506
0
VERTEX
8
L1D0
10
4005.478
20
4123.262
0
VERTEX
8
L1D0
10
4009.97
20
4124.203
0
VERTEX
8
L1D0
10
4014.418
20
4125.33
0
VERTEX
8
L1D0
10
4018.816
20
4126.639
0
VERTEX
8
L1D0
10
4023.157
20
4128.129
0
VERTEX
8
L1D0
10
4027.432
20
4129.797
0
VERTEX
8
L1D0
10
4031.634
20
4131.641
0
VERTEX
8
L1D0
10
4035.757
20
4133.656
0
VERTEX
8
L1D0
10
4039.793
20
4135.84
0
VERTEX
8
L1D0
10
4043.735
20
4138.19
0
VERTEX
8
L1D0
10
4047.577
20
4140.7
0
VERTEX
8
L1D0
10
4051.312
20
4143.366
0
VERTEX
8
L1D0
10
4054.933
20
4146.185
0
VERTEX
8
L1D0
10
4058.435
20
4149.151
0
VERTEX
8
L1D0
10
4061.811
20
4152.259
0
VERTEX
8
L1D0
10
4065.056
20
4155.504
0
VERTEX
8
L1D0
10
4068.164
20
4158.88
0
VERTEX
8
L1D0
10
4071.13
20
4162.382
0
VERTEX
8
L1D0
10
4073.949
20
4166.003
0
VERTEX
8
L1D0
10
4076.615
20
4169.738
0
VERTEX
8
L1D0
10
4079.125
20
4173.58
0
VERTEX
8
L1D0
10
4081.475
20
4177.522
0
VERTEX
8
L1D0
10
4083.659
20
4181.558
0
VERTEX
8
L1D0
10
4085.674
20
4185.681
0
VERTEX
8
L1D0
10
4087.518
20
4189.883
0
VERTEX
8
L1D0
10
4089.186
20
4194.158
0
VERTEX
8
L1D0
10
4090.676
20
4198.499
0
VERTEX
8
L1D0
10
4091.985
20
4202.897
0
VERTEX
8
L1D0
10
4093.112
20
4207.345
0
VERTEX
8
L1D0
10
4094.053
20
4211.837
0
VERTEX
8
L1D0
10
4094.809
20
4216.363
0
VERTEX
8
L1D0
10
4095.376
20
4220.917
0
VERTEX
8
L1D0
10
4095.755
20
4225.49
0
VERTEX
8
L1D0
10
4095.945
20
4230.075
0
VERTEX
8
L1D0
10
4095.945
20
4234.665
0
VERTEX
8
L1D0
10
4095.755
20
4239.25
0
VERTEX
8
L1D0
10
4095.376
20
4243.823
0
VERTEX
8
L1D0
10
4094.809
20
4248.377
0
VERTEX
8
L1D0
10
4094.053
20
4252.903
0
VERTEX
8
L1D0
10
4093.112
20
4257.395
0
VERTEX
8
L1D0
10
4091.985
20
4261.843
0
VERTEX
8
L1D0
10
4090.676
20
4266.241
0
VERTEX
8
L1D0
10
4089.186
20
4270.582
0
VERTEX
8
L1D0
10
4087.518
20
4274.857
0
VERTEX
8
L1D0
10
4085.674
20
4279.059
0
VERTEX
8
L1D0
10
4083.659
20
4283.182
0
VERTEX
8
L1D0
10
4081.475
20
4287.218
0
VERTEX
8
L1D0
10
4079.125
20
4291.16
0
VERTEX
8
L1D0
10
4076.615
20
4295.002
0
VERTEX
8
L1D0
10
4073.949
20
4298.737
0
VERTEX
8
L1D0
10
4071.13
20
4302.358
0
VERTEX
8
L1D0
10
4068.164
20
4305.86
0
VERTEX
8
L1D0
10
4065.056
20
4309.236
0
VERTEX
8
L1D0
10
4061.811
20
4312.481
0
VERTEX
8
L1D0
10
4058.435
20
4315.589
0
VERTEX
8
L1D0
10
4054.933
20
4318.555
0
VERTEX
8
L1D0
10
4051.312
20
4321.374
0
VERTEX
8
L1D0
10
4047.577
20
4324.04
0
VERTEX
8
L1D0
10
4043.735
20
4326.55
0
VERTEX
8
L1D0
10
4039.793
20
4328.9
0
VERTEX
8
L1D0
10
4035.757
20
4331.084
0
VERTEX
8
L1D0
10
4031.634
20
4333.099
0
VERTEX
8
L1D0
10
4027.432
20
4334.943
0
VERTEX
8
L1D0
10
4023.157
20
4336.611
0
VERTEX
8
L1D0
10
4018.816
20
4338.101
0
VERTEX
8
L1D0
10
4014.418
20
4339.41
0
VERTEX
8
L1D0
10
4009.97
20
4340.537
0
VERTEX
8
L1D0
10
4005.478
20
4341.478
0
VERTEX
8
L1D0
10
4000.952
20
4342.234
0
VERTEX
8
L1D0
10
3996.398
20
4342.801
0
VERTEX
8
L1D0
10
3991.825
20
4343.18
0
VERTEX
8
L1D0
10
3987.24
20
4343.37
0
VERTEX
8
L1D0
10
3620.097
20
4343.37
0
VERTEX
8
L1D0
10
3616.421
20
4343.522
0
VERTEX
8
L1D0
10
3612.754
20
4343.826
0
VERTEX
8
L1D0
10
3609.103
20
4344.281
0
VERTEX
8
L1D0
10
3605.473
20
4344.887
0
VERTEX
8
L1D0
10
3601.872
20
4345.642
0
VERTEX
8
L1D0
10
3598.305
20
4346.545
0
VERTEX
8
L1D0
10
3594.779
20
4347.595
0
VERTEX
8
L1D0
10
3591.299
20
4348.79
0
VERTEX
8
L1D0
10
3587.871
20
4350.127
0
VERTEX
8
L1D0
10
3584.501
20
4351.605
0
VERTEX
8
L1D0
10
3581.196
20
4353.221
0
VERTEX
8
L1D0
10
3577.96
20
4354.972
0
VERTEX
8
L1D0
10
3574.799
20
4356.856
0
VERTEX
8
L1D0
10
3571.718
20
4358.868
0
VERTEX
8
L1D0
10
3568.724
20
4361.006
0
VERTEX
8
L1D0
10
3565.82
20
4363.266
0
VERTEX
8
L1D0
10
3563.012
20
4365.645
0
VERTEX
8
L1D0
10
3560.305
20
4368.137
0
VERTEX
8
L1D0
10
3557.704
20
4370.738
0
VERTEX
8
L1D0
10
3555.212
20
4373.445
0
VERTEX
8
L1D0
10
3552.833
20
4376.253
0
VERTEX
8
L1D0
10
3550.573
20
4379.157
0
VERTEX
8
L1D0
10
3548.435
20
4382.151
0
VERTEX
8
L1D0
10
3546.423
20
4385.232
0
VERTEX
8
L1D0
10
3544.539
20
4388.393
0
VERTEX
8
L1D0
10
3542.788
20
4391.629
0
VERTEX
8
L1D0
10
3541.172
20
4394.934
0
VERTEX
8
L1D0
10
3539.694
20
4398.304
0
VERTEX
8
L1D0
10
3538.357
20
4401.732
0
VERTEX
8
L1D0
10
3537.162
20
4405.212
0
VERTEX
8
L1D0
10
3536.112
20
4408.738
0
VERTEX
8
L1D0
10
3535.209
20
4412.305
0
VERTEX
8
L1D0
10
3534.454
20
4415.906
0
VERTEX
8
L1D0
10
3533.848
20
4419.536
0
VERTEX
8
L1D0
10
3533.393
20
4423.187
0
VERTEX
8
L1D0
10
3533.089
20
4426.854
0
VERTEX
8
L1D0
10
3532.937
20
4430.53
0
VERTEX
8
L1D0
10
3532.937
20
4434.21
0
VERTEX
8
L1D0
10
3533.089
20
4437.886
0
VERTEX
8
L1D0
10
3533.393
20
4441.553
0
VERTEX
8
L1D0
10
3533.848
20
4445.204
0
VERTEX
8
L1D0
10
3534.454
20
4448.834
0
VERTEX
8
L1D0
10
3535.209
20
4452.435
0
VERTEX
8
L1D0
10
3536.112
20
4456.002
0
VERTEX
8
L1D0
10
3537.162
20
4459.528
0
VERTEX
8
L1D0
10
3538.357
20
4463.008
0
VERTEX
8
L1D0
10
3539.694
20
4466.436
0
VERTEX
8
L1D0
10
3541.172
20
4469.806
0
VERTEX
8
L1D0
10
3542.788
20
4473.111
0
VERTEX
8
L1D0
10
3544.539
20
4476.347
0
VERTEX
8
L1D0
10
3546.423
20
4479.508
0
VERTEX
8
L1D0
10
3548.435
20
4482.589
0
VERTEX
8
L1D0
10
3550.573
20
4485.583
0
VERTEX
8
L1D0
10
3552.833
20
4488.487
0
VERTEX
8
L1D0
10
3555.212
20
4491.295
0
VERTEX
8
L1D0
10
3557.704
20
4494.002
0
VERTEX
8
L1D0
10
3560.305
20
4496.603
0
VERTEX
8
L1D0
10
3563.012
20
4499.095
0
VERTEX
8
L1D0
10
3565.82
20
4501.474
0
VERTEX
8
L1D0
10
3568.724
20
4503.734
0
VERTEX
8
L1D0
10
3571.718
20
4505.872
0
VERTEX
8
L1D0
10
3574.799
20
4507.884
0
VERTEX
8
L1D0
10
3577.96
20
4509.768
0
VERTEX
8
L1D0
10
3581.196
20
4511.519
0
VERTEX
8
L1D0
10
3584.501
20
4513.135
0
VERTEX
8
L1D0
10
3587.871
20
4514.613
0
VERTEX
8
L1D0
10
3591.299
20
4515.95
0
VERTEX
8
L1D0
10
3594.779
20
4517.145
0
VERTEX
8
L1D0
10
3598.305
20
4518.195
0
VERTEX
8
L1D0
10
3601.872
20
4519.098
0
VERTEX
8
L1D0
10
3605.473
20
4519.853
0
VERTEX
8
L1D0
10
3609.103
20
4520.459
0
VERTEX
8
L1D0
10
3612.754
20
4520.914
0
VERTEX
8
L1D0
10
3616.421
20
4521.218
0
VERTEX
8
L1D0
10
3620.097
20
4521.37
0
VERTEX
8
L1D0
10
3987.24
20
4521.37
0
VERTEX
8
L1D0
10
3991.825
20
4521.56
0
VERTEX
8
L1D0
10
3996.398
20
4521.939
0
VERTEX
8
L1D0
10
4000.952
20
4522.506
0
VERTEX
8
L1D0
10
4005.478
20
4523.262
0
VERTEX
8
L1D0
10
4009.97
20
4524.203
0
VERTEX
8
L1D0
10
4014.418
20
4525.33
0
VERTEX
8
L1D0
10
4018.816
20
4526.639
0
VERTEX
8
L1D0
10
4023.157
20
4528.129
0
VERTEX
8
L1D0
10
4027.432
20
4529.797
0
VERTEX
8
L1D0
10
4031.634
20
4531.641
0
VERTEX
8
L1D0
10
4035.757
20
4533.656
0
VERTEX
8
L1D0
10
4039.793
20
4535.84
0
VERTEX
8
L1D0
10
4043.735
20
4538.19
0
VERTEX
8
L1D0
10
4047.577
20
4540.7
0
VERTEX
8
L1D0
10
4051.312
20
4543.366
0
VERTEX
8
L1D0
10
4054.933
20
4546.185
0
VERTEX
8
L1D0
10
4058.435
20
4549.151
0
VERTEX
8
L1D0
10
4061.811
20
4552.259
0
VERTEX
8
L1D0
10
4065.056
20
4555.504
0
VERTEX
8
L1D0
10
4068.164
20
4558.88
0
VERTEX
8
L1D0
10
4071.13
20
4562.382
0
VERTEX
8
L1D0
10
4073.949
20
4566.003
0
VERTEX
8
L1D0
10
4076.615
20
4569.738
0
VERTEX
8
L1D0
10
4079.125
20
4573.58
0
VERTEX
8
L1D0
10
4081.475
20
4577.522
0
VERTEX
8
L1D0
10
4083.659
20
4581.558
0
VERTEX
8
L1D0
10
4085.674
20
4585.681
0
VERTEX
8
L1D0
10
4087.518
20
4589.883
0
VERTEX
8
L1D0
10
4089.186
20
4594.158
0
VERTEX
8
L1D0
10
4090.676
20
4598.499
0
VERTEX
8
L1D0
10
4091.985
20
4602.897
0
VERTEX
8
L1D0
10
4093.112
20
4607.345
0
VERTEX
8
L1D0
10
4094.053
20
4611.837
0
VERTEX
8
L1D0
10
4094.809
20
4616.363
0
VERTEX
8
L1D0
10
4095.376
20
4620.917
0
VERTEX
8
L1D0
10
4095.755
20
4625.49
0
VERTEX
8
L1D0
10
4095.945
20
4630.075
0
VERTEX
8
L1D0
10
4095.945
20
4634.665
0
VERTEX
8
L1D0
10
4095.755
20
4639.25
0
VERTEX
8
L1D0
10
4095.376
20
4643.823
0
VERTEX
8
L1D0
10
4094.809
20
4648.377
0
VERTEX
8
L1D0
10
4094.053
20
4652.903
0
VERTEX
8
L1D0
10
4093.112
20
4657.395
0
VERTEX
8
L1D0
10
4091.985
20
4661.843
0
VERTEX
8
L1D0
10
4090.676
20
4666.241
0
VERTEX
8
L1D0
10
4089.186
20
4670.582
0
VERTEX
8
L1D0
10
4087.518
20
4674.857
0
VERTEX
8
L1D0
10
4085.674
20
4679.059
0
VERTEX
8
L1D0
10
4083.659
20
4683.182
0
VERTEX
8
L1D0
10
4081.475
20
4687.218
0
VERTEX
8
L1D0
10
4079.125
20
4691.16
0
VERTEX
8
L1D0
10
4076.615
20
4695.002
0
VERTEX
8
L1D0
10
4073.949
20
4698.737
0
VERTEX
8
L1D0
10
4071.13
20
4702.358
0
VERTEX
8
L1D0
10
4068.164
20
4705.86
0
VERTEX
8
L1D0
10
4065.056
20
4709.236
0
VERTEX
8
L1D0
10
4061.811
20
4712.481
0
VERTEX
8
L1D0
10
4058.435
20
4715.589
0
VERTEX
8
L1D0
10
4054.933
20
4718.555
0
VERTEX
8
L1D0
10
4051.312
20
4721.374
0
VERTEX
8
L1D0
10
4047.577
20
4724.04
0
VERTEX
8
L1D0
10
4043.735
20
4726.55
0
VERTEX
8
L1D0
10
4039.793
20
4728.9
0
VERTEX
8
L1D0
10
4035.757
20
4731.084
0
VERTEX
8
L1D0
10
4031.634
20
4733.099
0
VERTEX
8
L1D0
10
4027.432
20
4734.943
0
VERTEX
8
L1D0
10
4023.157
20
4736.611
0
VERTEX
8
L1D0
10
4018.816
20
4738.101
0
VERTEX
8
L1D0
10
4014.418
20
4739.41
0
VERTEX
8
L1D0
10
4009.97
20
4740.537
0
VERTEX
8
L1D0
10
4005.478
20
4741.478
0
VERTEX
8
L1D0
10
4000.952
20
4742.234
0
VERTEX
8
L1D0
10
3996.398
20
4742.801
0
VERTEX
8
L1D0
10
3991.825
20
4743.18
0
VERTEX
8
L1D0
10
3987.24
20
4743.37
0
VERTEX
8
L1D0
10
3901.601
20
4743.37
0
VERTEX
8
L1D0
10
3897.925
20
4743.522
0
VERTEX
8
L1D0
10
3894.258
20
4743.826
0
VERTEX
8
L1D0
10
3890.607
20
4744.281
0
VERTEX
8
L1D0
10
3886.977
20
4744.887
0
VERTEX
8
L1D0
10
3883.376
20
4745.642
0
VERTEX
8
L1D0
10
3879.809
20
4746.545
0
VERTEX
8
L1D0
10
3876.283
20
4747.595
0
VERTEX
8
L1D0
10
3872.803
20
4748.79
0
VERTEX
8
L1D0
10
3869.375
20
4750.127
0
VERTEX
8
L1D0
10
3866.005
20
4751.605
0
VERTEX
8
L1D0
10
3862.7
20
4753.221
0
VERTEX
8
L1D0
10
3859.464
20
4754.972
0
VERTEX
8
L1D0
10
3856.303
20
4756.856
0
VERTEX
8
L1D0
10
3853.222
20
4758.868
0
VERTEX
8
L1D0
10
3850.228
20
4761.006
0
VERTEX
8
L1D0
10
3847.324
20
4763.266
0
VERTEX
8
L1D0
10
3844.516
20
4765.645
0
VERTEX
8
L1D0
10
3841.809
20
4768.137
0
VERTEX
8
L1D0
10
3839.208
20
4770.738
0
VERTEX
8
L1D0
10
3836.716
20
4773.445
0
VERTEX
8
L1D0
10
3834.337
20
4776.253
0
VERTEX
8
L1D0
10
3832.077
20
4779.157
0
VERTEX
8
L1D0
10
3829.939
20
4782.151
0
VERTEX
8
L1D0
10
3827.927
20
4785.232
0
VERTEX
8
L1D0
10
3826.043
20
4788.393
0
VERTEX
8
L1D0
10
3824.292
20
4791.629
0
VERTEX
8
L1D0
10
3822.676
20
4794.934
0
VERTEX
8
L1D0
10
3821.198
20
4798.304
0
VERTEX
8
L1D0
10
3819.861
20
4801.732
0
VERTEX
8
L1D0
10
3818.666
20
4805.212
0
VERTEX
8
L1D0
10
3817.616
20
4808.738
0
VERTEX
8
L1D0
10
3816.713
20
4812.305
0
VERTEX
8
L1D0
10
3815.958
20
4815.906
0
VERTEX
8
L1D0
10
3815.352
20
4819.536
0
VERTEX
8
L1D0
10
3814.897
20
4823.187
0
VERTEX
8
L1D0
10
3814.593
20
4826.854
0
VERTEX
8
L1D0
10
3814.441
20
4830.53
0
VERTEX
8
L1D0
10
3814.441
20
4835.13
0
VERTEX
8
L1D0
10
3814.593
20
4838.806
0
VERTEX
8
L1D0
10
3814.897
20
4842.473
0
VERTEX
8
L1D0
10
3815.352
20
4846.124
0
VERTEX
8
L1D0
10
3815.958
20
4849.754
0
VERTEX
8
L1D0
10
3816.713
20
4853.355
0
VERTEX
8
L1D0
10
3817.616
20
4856.922
0
VERTEX
8
L1D0
10
3818.666
20
4860.448
0
VERTEX
8
L1D0
10
3819.861
20
4863.928
0
VERTEX
8
L1D0
10
3821.198
20
4867.356
0
VERTEX
8
L1D0
10
3822.676
20
4870.726
0
VERTEX
8
L1D0
10
3824.292
20
4874.031
0
VERTEX
8
L1D0
10
3826.043
20
4877.267
0
VERTEX
8
L1D0
10
3827.927
20
4880.428
0
VERTEX
8
L1D0
10
3829.939
20
4883.509
0
VERTEX
8
L1D0
10
3832.077
20
4886.503
0
VERTEX
8
L1D0
10
3834.337
20
4889.407
0
VERTEX
8
L1D0
10
3836.716
20
4892.215
0
VERTEX
8
L1D0
10
3839.208
20
4894.922
0
VERTEX
8
L1D0
10
3841.809
20
4897.523
0
VERTEX
8
L1D0
10
3844.516
20
4900.015
0
VERTEX
8
L1D0
10
3847.324
20
4902.394
0
VERTEX
8
L1D0
10
3850.228
20
4904.654
0
VERTEX
8
L1D0
10
3853.222
20
4906.792
0
VERTEX
8
L1D0
10
3856.303
20
4908.804
0
VERTEX
8
L1D0
10
3859.464
20
4910.688
0
VERTEX
8
L1D0
10
3862.7
20
4912.439
0
VERTEX
8
L1D0
10
3866.005
20
4914.055
0
VERTEX
8
L1D0
10
3869.375
20
4915.533
0
VERTEX
8
L1D0
10
3872.803
20
4916.87
0
VERTEX
8
L1D0
10
3876.283
20
4918.065
0
VERTEX
8
L1D0
10
3879.809
20
4919.115
0
VERTEX
8
L1D0
10
3883.376
20
4920.018
0
VERTEX
8
L1D0
10
3886.977
20
4920.773
0
VERTEX
8
L1D0
10
3890.607
20
4921.379
0
VERTEX
8
L1D0
10
3894.258
20
4921.834
0
VERTEX
8
L1D0
10
3897.925
20
4922.138
0
VERTEX
8
L1D0
10
3901.601
20
4922.29
0
VERTEX
8
L1D0
10
4103.441
20
4922.29
0
VERTEX
8
L1D0
10
4103.441
20
4928.29
0
VERTEX
8
L1D0
10
3901.477
20
4928.29
0
VERTEX
8
L1D0
10
3897.553
20
4928.128
0
VERTEX
8
L1D0
10
3893.639
20
4927.803
0
VERTEX
8
L1D0
10
3889.742
20
4927.318
0
VERTEX
8
L1D0
10
3885.868
20
4926.671
0
VERTEX
8
L1D0
10
3882.024
20
4925.865
0
VERTEX
8
L1D0
10
3878.216
20
4924.901
0
VERTEX
8
L1D0
10
3874.452
20
4923.78
0
VERTEX
8
L1D0
10
3870.737
20
4922.505
0
VERTEX
8
L1D0
10
3867.078
20
4921.077
0
VERTEX
8
L1D0
10
3863.482
20
4919.5
0
VERTEX
8
L1D0
10
3859.953
20
4917.775
0
VERTEX
8
L1D0
10
3856.499
20
4915.905
0
VERTEX
8
L1D0
10
3853.125
20
4913.895
0
VERTEX
8
L1D0
10
3849.837
20
4911.747
0
VERTEX
8
L1D0
10
3846.64
20
4909.465
0
VERTEX
8
L1D0
10
3843.541
20
4907.052
0
VERTEX
8
L1D0
10
3840.544
20
4904.514
0
VERTEX
8
L1D0
10
3837.654
20
4901.854
0
VERTEX
8
L1D0
10
3834.877
20
4899.077
0
VERTEX
8
L1D0
10
3832.217
20
4896.187
0
VERTEX
8
L1D0
10
3829.679
20
4893.19
0
VERTEX
8
L1D0
10
3827.266
20
4890.091
0
VERTEX
8
L1D0
10
3824.984
20
4886.894
0
VERTEX
8
L1D0
10
3822.836
20
4883.606
0
VERTEX
8
L1D0
10
3820.826
20
4880.232
0
VERTEX
8
L1D0
10
3818.956
20
4876.778
0
VERTEX
8
L1D0
10
3817.231
20
4873.249
0
VERTEX
8
L1D0
10
3815.654
20
4869.653
0
VERTEX
8
L1D0
10
3814.226
20
4865.994
0
VERTEX
8
L1D0
10
3812.951
20
4862.279
0
VERTEX
8
L1D0
10
3811.83
20
4858.515
0
VERTEX
8
L1D0
10
3810.866
20
4854.707
0
VERTEX
8
L1D0
10
3810.06
20
4850.863
0
VERTEX
8
L1D0
10
3809.413
20
4846.989
0
VERTEX
8
L1D0
10
3808.928
20
4843.092
0
VERTEX
8
L1D0
10
3808.603
20
4839.178
0
VERTEX
8
L1D0
10
3808.441
20
4835.254
0
VERTEX
8
L1D0
10
3808.441
20
4830.406
0
VERTEX
8
L1D0
10
3808.603
20
4826.482
0
VERTEX
8
L1D0
10
3808.928
20
4822.568
0
VERTEX
8
L1D0
10
3809.413
20
4818.671
0
VERTEX
8
L1D0
10
3810.06
20
4814.797
0
VERTEX
8
L1D0
10
3810.866
20
4810.953
0
VERTEX
8
L1D0
10
3811.83
20
4807.145
0
VERTEX
8
L1D0
10
3812.951
20
4803.381
0
VERTEX
8
L1D0
10
3814.226
20
4799.666
0
VERTEX
8
L1D0
10
3815.654
20
4796.007
0
VERTEX
8
L1D0
10
3817.231
20
4792.411
0
VERTEX
8
L1D0
10
3818.956
20
4788.882
0
VERTEX
8
L1D0
10
3820.826
20
4785.428
0
VERTEX
8
L1D0
10
3822.836
20
4782.054
0
VERTEX
8
L1D0
10
3824.984
20
4778.766
0
VERTEX
8
L1D0
10
3827.266
20
4775.569
0
VERTEX
8
L1D0
10
3829.679
20
4772.47
0
VERTEX
8
L1D0
10
3832.217
20
4769.473
0
VERTEX
8
L1D0
10
3834.877
20
4766.583
0
VERTEX
8
L1D0
10
3837.654
20
4763.806
0
VERTEX
8
L1D0
10
3840.544
20
4761.146
0
VERTEX
8
L1D0
10
3843.541
20
4758.608
0
VERTEX
8
L1D0
10
3846.64
20
4756.195
0
VERTEX
8
L1D0
10
3849.837
20
4753.913
0
VERTEX
8
L1D0
10
3853.125
20
4751.765
0
VERTEX
8
L1D0
10
3856.499
20
4749.755
0
VERTEX
8
L1D0
10
3859.953
20
4747.885
0
VERTEX
8
L1D0
10
3863.482
20
4746.16
0
VERTEX
8
L1D0
10
3867.078
20
4744.583
0
VERTEX
8
L1D0
10
3870.737
20
4743.155
0
VERTEX
8
L1D0
10
3874.452
20
4741.88
0
VERTEX
8
L1D0
10
3878.216
20
4740.759
0
VERTEX
8
L1D0
10
3882.024
20
4739.795
0
VERTEX
8
L1D0
10
3885.868
20
4738.989
0
VERTEX
8
L1D0
10
3889.742
20
4738.342
0
VERTEX
8
L1D0
10
3893.639
20
4737.857
0
VERTEX
8
L1D0
10
3897.553
20
4737.532
0
VERTEX
8
L1D0
10
3901.477
20
4737.37
0
VERTEX
8
L1D0
10
3987.115
20
4737.37
0
VERTEX
8
L1D0
10
3991.453
20
4737.191
0
VERTEX
8
L1D0
10
3995.779
20
4736.832
0
VERTEX
8
L1D0
10
4000.087
20
4736.295
0
VERTEX
8
L1D0
10
4004.368
20
4735.581
0
VERTEX
8
L1D0
10
4008.617
20
4734.69
0
VERTEX
8
L1D0
10
4012.825
20
4733.624
0
VERTEX
8
L1D0
10
4016.986
20
4732.386
0
VERTEX
8
L1D0
10
4021.091
20
4730.976
0
VERTEX
8
L1D0
10
4025.135
20
4729.398
0
VERTEX
8
L1D0
10
4029.111
20
4727.654
0
VERTEX
8
L1D0
10
4033.011
20
4725.748
0
VERTEX
8
L1D0
10
4036.828
20
4723.682
0
VERTEX
8
L1D0
10
4040.557
20
4721.46
0
VERTEX
8
L1D0
10
4044.192
20
4719.085
0
VERTEX
8
L1D0
10
4047.725
20
4716.563
0
VERTEX
8
L1D0
10
4051.15
20
4713.897
0
VERTEX
8
L1D0
10
4054.463
20
4711.091
0
VERTEX
8
L1D0
10
4057.656
20
4708.151
0
VERTEX
8
L1D0
10
4060.726
20
4705.081
0
VERTEX
8
L1D0
10
4063.666
20
4701.888
0
VERTEX
8
L1D0
10
4066.472
20
4698.575
0
VERTEX
8
L1D0
10
4069.138
20
4695.15
0
VERTEX
8
L1D0
10
4071.66
20
4691.617
0
VERTEX
8
L1D0
10
4074.035
20
4687.982
0
VERTEX
8
L1D0
10
4076.257
20
4684.253
0
VERTEX
8
L1D0
10
4078.323
20
4680.436
0
VERTEX
8
L1D0
10
4080.229
20
4676.536
0
VERTEX
8
L1D0
10
4081.973
20
4672.56
0
VERTEX
8
L1D0
10
4083.551
20
4668.516
0
VERTEX
8
L1D0
10
4084.961
20
4664.411
0
VERTEX
8
L1D0
10
4086.199
20
4660.25
0
VERTEX
8
L1D0
10
4087.265
20
4656.042
0
VERTEX
8
L1D0
10
4088.156
20
4651.793
0
VERTEX
8
L1D0
10
4088.87
20
4647.512
0
VERTEX
8
L1D0
10
4089.407
20
4643.204
0
VERTEX
8
L1D0
10
4089.766
20
4638.878
0
VERTEX
8
L1D0
10
4089.945
20
4634.54
0
VERTEX
8
L1D0
10
4089.945
20
4630.2
0
VERTEX
8
L1D0
10
4089.766
20
4625.862
0
VERTEX
8
L1D0
10
4089.407
20
4621.536
0
VERTEX
8
L1D0
10
4088.87
20
4617.228
0
VERTEX
8
L1D0
10
4088.156
20
4612.947
0
VERTEX
8
L1D0
10
4087.265
20
4608.698
0
VERTEX
8
L1D0
10
4086.199
20
4604.49
0
VERTEX
8
L1D0
10
4084.961
20
4600.329
0
VERTEX
8
L1D0
10
4083.551
20
4596.224
0
VERTEX
8
L1D0
10
4081.973
20
4592.18
0
VERTEX
8
L1D0
10
4080.229
20
4588.204
0
VERTEX
8
L1D0
10
4078.323
20
4584.304
0
VERTEX
8
L1D0
10
4076.257
20
4580.487
0
VERTEX
8
L1D0
10
4074.035
20
4576.758
0
VERTEX
8
L1D0
10
4071.66
20
4573.123
0
VERTEX
8
L1D0
10
4069.138
20
4569.59
0
VERTEX
8
L1D0
10
4066.472
20
4566.165
0
VERTEX
8
L1D0
10
4063.666
20
4562.852
0
VERTEX
8
L1D0
10
4060.726
20
4559.659
0
VERTEX
8
L1D0
10
4057.656
20
4556.589
0
VERTEX
8
L1D0
10
4054.463
20
4553.649
0
VERTEX
8
L1D0
10
4051.15
20
4550.843
0
VERTEX
8
L1D0
10
4047.725
20
4548.177
0
VERTEX
8
L1D0
10
4044.192
20
4545.655
0
VERTEX
8
L1D0
10
4040.557
20
4543.28
0
VERTEX
8
L1D0
10
4036.828
20
4541.058
0
VERTEX
8
L1D0
10
4033.011
20
4538.992
0
VERTEX
8
L1D0
10
4029.111
20
4537.086
0
VERTEX
8
L1D0
10
4025.135
20
4535.342
0
VERTEX
8
L1D0
10
4021.091
20
4533.764
0
VERTEX
8
L1D0
10
4016.986
20
4532.354
0
VERTEX
8
L1D0
10
4012.825
20
4531.116
0
VERTEX
8
L1D0
10
4008.617
20
4530.05
0
VERTEX
8
L1D0
10
4004.368
20
4529.159
0
VERTEX
8
L1D0
10
4000.087
20
4528.445
0
VERTEX
8
L1D0
10
3995.779
20
4527.908
0
VERTEX
8
L1D0
10
3991.453
20
4527.549
0
VERTEX
8
L1D0
10
3987.115
20
4527.37
0
VERTEX
8
L1D0
10
3619.973
20
4527.37
0
VERTEX
8
L1D0
10
3616.049
20
4527.208
0
VERTEX
8
L1D0
10
3612.135
20
4526.883
0
VERTEX
8
L1D0
10
3608.238
20
4526.398
0
VERTEX
8
L1D0
10
3604.364
20
4525.751
0
VERTEX
8
L1D0
10
3600.52
20
4524.945
0
VERTEX
8
L1D0
10
3596.712
20
4523.981
0
VERTEX
8
L1D0
10
3592.948
20
4522.86
0
VERTEX
8
L1D0
10
3589.233
20
4521.585
0
VERTEX
8
L1D0
10
3585.574
20
4520.157
0
VERTEX
8
L1D0
10
3581.978
20
4518.58
0
VERTEX
8
L1D0
10
3578.449
20
4516.855
0
VERTEX
8
L1D0
10
3574.995
20
4514.985
0
VERTEX
8
L1D0
10
3571.621
20
4512.975
0
VERTEX
8
L1D0
10
3568.333
20
4510.827
0
VERTEX
8
L1D0
10
3565.136
20
4508.545
0
VERTEX
8
L1D0
10
3562.037
20
4506.132
0
VERTEX
8
L1D0
10
3559.04
20
4503.594
0
VERTEX
8
L1D0
10
3556.15
20
4500.934
0
VERTEX
8
L1D0
10
3553.373
20
4498.157
0
VERTEX
8
L1D0
10
3550.713
20
4495.267
0
VERTEX
8
L1D0
10
3548.175
20
4492.27
0
VERTEX
8
L1D0
10
3545.762
20
4489.171
0
VERTEX
8
L1D0
10
3543.48
20
4485.974
0
VERTEX
8
L1D0
10
3541.332
20
4482.686
0
VERTEX
8
L1D0
10
3539.322
20
4479.312
0
VERTEX
8
L1D0
10
3537.452
20
4475.858
0
VERTEX
8
L1D0
10
3535.727
20
4472.329
0
VERTEX
8
L1D0
10
3534.15
20
4468.733
0
VERTEX
8
L1D0
10
3532.722
20
4465.074
0
VERTEX
8
L1D0
10
3531.447
20
4461.359
0
VERTEX
8
L1D0
10
3530.326
20
4457.595
0
VERTEX
8
L1D0
10
3529.362
20
4453.787
0
VERTEX
8
L1D0
10
3528.556
20
4449.943
0
VERTEX
8
L1D0
10
3527.909
20
4446.069
0
VERTEX
8
L1D0
10
3527.424
20
4442.172
0
VERTEX
8
L1D0
10
3527.099
20
4438.258
0
VERTEX
8
L1D0
10
3526.937
20
4434.334
0
VERTEX
8
L1D0
10
3526.937
20
4430.406
0
VERTEX
8
L1D0
10
3527.099
20
4426.482
0
VERTEX
8
L1D0
10
3527.424
20
4422.568
0
VERTEX
8
L1D0
10
3527.909
20
4418.671
0
VERTEX
8
L1D0
10
3528.556
20
4414.797
0
VERTEX
8
L1D0
10
3529.362
20
4410.953
0
VERTEX
8
L1D0
10
3530.326
20
4407.145
0
VERTEX
8
L1D0
10
3531.447
20
4403.381
0
VERTEX
8
L1D0
10
3532.722
20
4399.666
0
VERTEX
8
L1D0
10
3534.15
20
4396.007
0
VERTEX
8
L1D0
10
3535.727
20
4392.411
0
VERTEX
8
L1D0
10
3537.452
20
4388.882
0
VERTEX
8
L1D0
10
3539.322
20
4385.428
0
VERTEX
8
L1D0
10
3541.332
20
4382.054
0
VERTEX
8
L1D0
10
3543.48
20
4378.766
0
VERTEX
8
L1D0
10
3545.762
20
4375.569
0
VERTEX
8
L1D0
10
3548.175
20
4372.47
0
VERTEX
8
L1D0
10
3550.713
20
4369.473
0
VERTEX
8
L1D0
10
3553.373
20
4366.583
0
VERTEX
8
L1D0
10
3556.15
20
4363.806
0
VERTEX
8
L1D0
10
3559.04
20
4361.146
0
VERTEX
8
L1D0
10
3562.037
20
4358.608
0
VERTEX
8
L1D0
10
3565.136
20
4356.195
0
VERTEX
8
L1D0
10
3568.333
20
4353.913
0
VERTEX
8
L1D0
10
3571.621
20
4351.765
0
VERTEX
8
L1D0
10
3574.995
20
4349.755
0
VERTEX
8
L1D0
10
3578.449
20
4347.885
0
VERTEX
8
L1D0
10
3581.978
20
4346.16
0
VERTEX
8
L1D0
10
3585.574
20
4344.583
0
VERTEX
8
L1D0
10
3589.233
20
4343.155
0
VERTEX
8
L1D0
10
3592.948
20
4341.88
0
VERTEX
8
L1D0
10
3596.712
20
4340.759
0
VERTEX
8
L1D0
10
3600.52
20
4339.795
0
VERTEX
8
L1D0
10
3604.364
20
4338.989
0
VERTEX
8
L1D0
10
3608.238
20
4338.342
0
VERTEX
8
L1D0
10
3612.135
20
4337.857
0
VERTEX
8
L1D0
10
3616.049
20
4337.532
0
VERTEX
8
L1D0
10
3619.973
20
4337.37
0
VERTEX
8
L1D0
10
3987.115
20
4337.37
0
VERTEX
8
L1D0
10
3991.453
20
4337.191
0
VERTEX
8
L1D0
10
3995.779
20
4336.832
0
VERTEX
8
L1D0
10
4000.087
20
4336.295
0
VERTEX
8
L1D0
10
4004.368
20
4335.581
0
VERTEX
8
L1D0
10
4008.617
20
4334.69
0
VERTEX
8
L1D0
10
4012.825
20
4333.624
0
VERTEX
8
L1D0
10
4016.986
20
4332.386
0
VERTEX
8
L1D0
10
4021.091
20
4330.976
0
VERTEX
8
L1D0
10
4025.135
20
4329.398
0
VERTEX
8
L1D0
10
4029.111
20
4327.654
0
VERTEX
8
L1D0
10
4033.011
20
4325.748
0
VERTEX
8
L1D0
10
4036.828
20
4323.682
0
VERTEX
8
L1D0
10
4040.557
20
4321.46
0
VERTEX
8
L1D0
10
4044.192
20
4319.085
0
VERTEX
8
L1D0
10
4047.725
20
4316.563
0
VERTEX
8
L1D0
10
4051.15
20
4313.897
0
VERTEX
8
L1D0
10
4054.463
20
4311.091
0
VERTEX
8
L1D0
10
4057.656
20
4308.151
0
VERTEX
8
L1D0
10
4060.726
20
4305.081
0
VERTEX
8
L1D0
10
4063.666
20
4301.888
0
VERTEX
8
L1D0
10
4066.472
20
4298.575
0
VERTEX
8
L1D0
10
4069.138
20
4295.15
0
VERTEX
8
L1D0
10
4071.66
20
4291.617
0
VERTEX
8
L1D0
10
4074.035
20
4287.982
0
VERTEX
8
L1D0
10
4076.257
20
4284.253
0
VERTEX
8
L1D0
10
4078.323
20
4280.436
0
VERTEX
8
L1D0
10
4080.229
20
4276.536
0
VERTEX
8
L1D0
10
4081.973
20
4272.56
0
VERTEX
8
L1D0
10
4083.551
20
4268.516
0
VERTEX
8
L1D0
10
4084.961
20
4264.411
0
VERTEX
8
L1D0
10
4086.199
20
4260.25
0
VERTEX
8
L1D0
10
4087.265
20
4256.042
0
VERTEX
8
L1D0
10
4088.156
20
4251.793
0
VERTEX
8
L1D0
10
4088.87
20
4247.512
0
VERTEX
8
L1D0
10
4089.407
20
4243.204
0
VERTEX
8
L1D0
10
4089.766
20
4238.878
0
VERTEX
8
L1D0
10
4089.945
20
4234.54
0
VERTEX
8
L1D0
10
4089.945
20
4230.2
0
VERTEX
8
L1D0
10
4089.766
20
4225.862
0
VERTEX
8
L1D0
10
4089.407
20
4221.536
0
VERTEX
8
L1D0
10
4088.87
20
4217.228
0
VERTEX
8
L1D0
10
4088.156
20
4212.947
0
VERTEX
8
L1D0
10
4087.265
20
4208.698
0
VERTEX
8
L1D0
10
4086.199
20
4204.49
0
VERTEX
8
L1D0
10
4084.961
20
4200.329
0
VERTEX
8
L1D0
10
4083.551
20
4196.224
0
VERTEX
8
L1D0
10
4081.973
20
4192.18
0
VERTEX
8
L1D0
10
4080.229
20
4188.204
0
VERTEX
8
L1D0
10
4078.323
20
4184.304
0
VERTEX
8
L1D0
10
4076.257
20
4180.487
0
VERTEX
8
L1D0
10
4074.035
20
4176.758
0
VERTEX
8
L1D0
10
4071.66
20
4173.123
0
VERTEX
8
L1D0
10
4069.138
20
4169.59
0
VERTEX
8
L1D0
10
4066.472
20
4166.165
0
VERTEX
8
L1D0
10
4063.666
20
4162.852
0
VERTEX
8
L1D0
10
4060.726
20
4159.659
0
VERTEX
8
L1D0
10
4057.656
20
4156.589
0
VERTEX
8
L1D0
10
4054.463
20
4153.649
0
VERTEX
8
L1D0
10
4051.15
20
4150.843
0
VERTEX
8
L1D0
10
4047.725
20
4148.177
0
VERTEX
8
L1D0
10
4044.192
20
4145.655
0
VERTEX
8
L1D0
10
4040.557
20
4143.28
0
VERTEX
8
L1D0
10
4036.828
20
4141.058
0
VERTEX
8
L1D0
10
4033.011
20
4138.992
0
VERTEX
8
L1D0
10
4029.111
20
4137.086
0
VERTEX
8
L1D0
10
4025.135
20
4135.342
0
VERTEX
8
L1D0
10
4021.091
20
4133.764
0
VERTEX
8
L1D0
10
4016.986
20
4132.354
0
VERTEX
8
L1D0
10
4012.825
20
4131.116
0
VERTEX
8
L1D0
10
4008.617
20
4130.05
0
VERTEX
8
L1D0
10
4004.368
20
4129.159
0
VERTEX
8
L1D0
10
4000.087
20
4128.445
0
VERTEX
8
L1D0
10
3995.779
20
4127.908
0
VERTEX
8
L1D0
10
3991.453
20
4127.549
0
VERTEX
8
L1D0
10
3987.115
20
4127.37
0
VERTEX
8
L1D0
10
3619.973
20
4127.37
0
VERTEX
8
L1D0
10
3616.049
20
4127.208
0
VERTEX
8
L1D0
10
3612.135
20
4126.883
0
VERTEX
8
L1D0
10
3608.238
20
4126.398
0
VERTEX
8
L1D0
10
3604.364
20
4125.751
0
VERTEX
8
L1D0
10
3600.52
20
4124.945
0
VERTEX
8
L1D0
10
3596.712
20
4123.981
0
VERTEX
8
L1D0
10
3592.948
20
4122.86
0
VERTEX
8
L1D0
10
3589.233
20
4121.585
0
VERTEX
8
L1D0
10
3585.574
20
4120.157
0
VERTEX
8
L1D0
10
3581.978
20
4118.58
0
VERTEX
8
L1D0
10
3578.449
20
4116.855
0
VERTEX
8
L1D0
10
3574.995
20
4114.985
0
VERTEX
8
L1D0
10
3571.621
20
4112.975
0
VERTEX
8
L1D0
10
3568.333
20
4110.827
0
VERTEX
8
L1D0
10
3565.136
20
4108.545
0
VERTEX
8
L1D0
10
3562.037
20
4106.132
0
VERTEX
8
L1D0
10
3559.04
20
4103.594
0
VERTEX
8
L1D0
10
3556.15
20
4100.934
0
VERTEX
8
L1D0
10
3553.373
20
4098.157
0
VERTEX
8
L1D0
10
3550.713
20
4095.267
0
VERTEX
8
L1D0
10
3548.175
20
4092.27
0
VERTEX
8
L1D0
10
3545.762
20
4089.171
0
VERTEX
8
L1D0
10
3543.48
20
4085.974
0
VERTEX
8
L1D0
10
3541.332
20
4082.686
0
VERTEX
8
L1D0
10
3539.322
20
4079.312
0
VERTEX
8
L1D0
10
3537.452
20
4075.858
0
VERTEX
8
L1D0
10
3535.727
20
4072.329
0
VERTEX
8
L1D0
10
3534.15
20
4068.733
0
VERTEX
8
L1D0
10
3532.722
20
4065.074
0
VERTEX
8
L1D0
10
3531.447
20
4061.359
0
VERTEX
8
L1D0
10
3530.326
20
4057.595
0
VERTEX
8
L1D0
10
3529.362
20
4053.787
0
VERTEX
8
L1D0
10
3528.556
20
4049.943
0
VERTEX
8
L1D0
10
3527.909
20
4046.069
0
VERTEX
8
L1D0
10
3527.424
20
4042.172
0
VERTEX
8
L1D0
10
3527.099
20
4038.258
0
VERTEX
8
L1D0
10
3526.937
20
4034.334
0
VERTEX
8
L1D0
10
3526.937
20
4030.406
0
VERTEX
8
L1D0
10
3527.099
20
4026.482
0
VERTEX
8
L1D0
10
3527.424
20
4022.568
0
VERTEX
8
L1D0
10
3527.909
20
4018.671
0
VERTEX
8
L1D0
10
3528.556
20
4014.797
0
VERTEX
8
L1D0
10
3529.362
20
4010.953
0
VERTEX
8
L1D0
10
3530.326
20
4007.145
0
VERTEX
8
L1D0
10
3531.447
20
4003.381
0
VERTEX
8
L1D0
10
3532.722
20
3999.666
0
VERTEX
8
L1D0
10
3534.15
20
3996.007
0
VERTEX
8
L1D0
10
3535.727
20
3992.411
0
VERTEX
8
L1D0
10
3537.452
20
3988.882
0
VERTEX
8
L1D0
10
3539.322
20
3985.428
0
VERTEX
8
L1D0
10
3541.332
20
3982.054
0
VERTEX
8
L1D0
10
3543.48
20
3978.766
0
VERTEX
8
L1D0
10
3545.762
20
3975.569
0
VERTEX
8
L1D0
10
3548.175
20
3972.47
0
VERTEX
8
L1D0
10
3550.713
20
3969.473
0
VERTEX
8
L1D0
10
3553.373
20
3966.583
0
VERTEX
8
L1D0
10
3556.15
20
3963.806
0
VERTEX
8
L1D0
10
3559.04
20
3961.146
0
VERTEX
8
L1D0
10
3562.037
20
3958.608
0
VERTEX
8
L1D0
10
3565.136
20
3956.195
0
VERTEX
8
L1D0
10
3568.333
20
3953.913
0
VERTEX
8
L1D0
10
3571.621
20
3951.765
0
VERTEX
8
L1D0
10
3574.995
20
3949.755
0
VERTEX
8
L1D0
10
3578.449
20
3947.885
0
VERTEX
8
L1D0
10
3581.978
20
3946.16
0
VERTEX
8
L1D0
10
3585.574
20
3944.583
0
VERTEX
8
L1D0
10
3589.233
20
3943.155
0
VERTEX
8
L1D0
10
3592.948
20
3941.88
0
VERTEX
8
L1D0
10
3596.712
20
3940.759
0
VERTEX
8
L1D0
10
3600.52
20
3939.795
0
VERTEX
8
L1D0
10
3604.364
20
3938.989
0
VERTEX
8
L1D0
10
3608.238
20
3938.342
0
VERTEX
8
L1D0
10
3612.135
20
3937.857
0
VERTEX
8
L1D0
10
3616.049
20
3937.532
0
VERTEX
8
L1D0
10
3619.973
20
3937.37
0
VERTEX
8
L1D0
10
3987.115
20
3937.37
0
VERTEX
8
L1D0
10
3991.453
20
3937.191
0
VERTEX
8
L1D0
10
3995.779
20
3936.832
0
VERTEX
8
L1D0
10
4000.087
20
3936.295
0
VERTEX
8
L1D0
10
4004.368
20
3935.581
0
VERTEX
8
L1D0
10
4008.617
20
3934.69
0
VERTEX
8
L1D0
10
4012.825
20
3933.624
0
VERTEX
8
L1D0
10
4016.986
20
3932.386
0
VERTEX
8
L1D0
10
4021.091
20
3930.976
0
VERTEX
8
L1D0
10
4025.135
20
3929.398
0
VERTEX
8
L1D0
10
4029.111
20
3927.654
0
VERTEX
8
L1D0
10
4033.011
20
3925.748
0
VERTEX
8
L1D0
10
4036.828
20
3923.682
0
VERTEX
8
L1D0
10
4040.557
20
3921.46
0
VERTEX
8
L1D0
10
4044.192
20
3919.085
0
VERTEX
8
L1D0
10
4047.725
20
3916.563
0
VERTEX
8
L1D0
10
4051.15
20
3913.897
0
VERTEX
8
L1D0
10
4054.463
20
3911.091
0
VERTEX
8
L1D0
10
4057.656
20
3908.151
0
VERTEX
8
L1D0
10
4060.726
20
3905.081
0
VERTEX
8
L1D0
10
4063.666
20
3901.888
0
VERTEX
8
L1D0
10
4066.472
20
3898.575
0
VERTEX
8
L1D0
10
4069.138
20
3895.15
0
VERTEX
8
L1D0
10
4071.66
20
3891.617
0
VERTEX
8
L1D0
10
4074.035
20
3887.982
0
VERTEX
8
L1D0
10
4076.257
20
3884.253
0
VERTEX
8
L1D0
10
4078.323
20
3880.436
0
VERTEX
8
L1D0
10
4080.229
20
3876.536
0
VERTEX
8
L1D0
10
4081.973
20
3872.56
0
VERTEX
8
L1D0
10
4083.551
20
3868.516
0
VERTEX
8
L1D0
10
4084.961
20
3864.411
0
VERTEX
8
L1D0
10
4086.199
20
3860.25
0
VERTEX
8
L1D0
10
4087.265
20
3856.042
0
VERTEX
8
L1D0
10
4088.156
20
3851.793
0
VERTEX
8
L1D0
10
4088.87
20
3847.512
0
VERTEX
8
L1D0
10
4089.407
20
3843.204
0
VERTEX
8
L1D0
10
4089.766
20
3838.878
0
VERTEX
8
L1D0
10
4089.945
20
3834.54
0
VERTEX
8
L1D0
10
4089.945
20
3830.2
0
VERTEX
8
L1D0
10
4089.766
20
3825.862
0
VERTEX
8
L1D0
10
4089.407
20
3821.536
0
VERTEX
8
L1D0
10
4088.87
20
3817.228
0
VERTEX
8
L1D0
10
4088.156
20
3812.947
0
VERTEX
8
L1D0
10
4087.265
20
3808.698
0
VERTEX
8
L1D0
10
4086.199
20
3804.49
0
VERTEX
8
L1D0
10
4084.961
20
3800.329
0
VERTEX
8
L1D0
10
4083.551
20
3796.224
0
VERTEX
8
L1D0
10
4081.973
20
3792.18
0
VERTEX
8
L1D0
10
4080.229
20
3788.204
0
VERTEX
8
L1D0
10
4078.323
20
3784.304
0
VERTEX
8
L1D0
10
4076.257
20
3780.487
0
VERTEX
8
L1D0
10
4074.035
20
3776.758
0
VERTEX
8
L1D0
10
4071.66
20
3773.123
0
VERTEX
8
L1D0
10
4069.138
20
3769.59
0
VERTEX
8
L1D0
10
4066.472
20
3766.165
0
VERTEX
8
L1D0
10
4063.666
20
3762.852
0
VERTEX
8
L1D0
10
4060.726
20
3759.659
0
VERTEX
8
L1D0
10
4057.656
20
3756.589
0
VERTEX
8
L1D0
10
4054.463
20
3753.649
0
VERTEX
8
L1D0
10
4051.15
20
3750.843
0
VERTEX
8
L1D0
10
4047.725
20
3748.177
0
VERTEX
8
L1D0
10
4044.192
20
3745.655
0
VERTEX
8
L1D0
10
4040.557
20
3743.28
0
VERTEX
8
L1D0
10
4036.828
20
3741.058
0
VERTEX
8
L1D0
10
4033.011
20
3738.992
0
VERTEX
8
L1D0
10
4029.111
20
3737.086
0
VERTEX
8
L1D0
10
4025.135
20
3735.342
0
VERTEX
8
L1D0
10
4021.091
20
3733.764
0
VERTEX
8
L1D0
10
4016.986
20
3732.354
0
VERTEX
8
L1D0
10
4012.825
20
3731.116
0
VERTEX
8
L1D0
10
4008.617
20
3730.05
0
VERTEX
8
L1D0
10
4004.368
20
3729.159
0
VERTEX
8
L1D0
10
4000.087
20
3728.445
0
VERTEX
8
L1D0
10
3995.779
20
3727.908
0
VERTEX
8
L1D0
10
3991.453
20
3727.549
0
VERTEX
8
L1D0
10
3987.115
20
3727.37
0
VERTEX
8
L1D0
10
3901.477
20
3727.37
0
VERTEX
8
L1D0
10
3897.553
20
3727.208
0
VERTEX
8
L1D0
10
3893.639
20
3726.883
0
VERTEX
8
L1D0
10
3889.742
20
3726.398
0
VERTEX
8
L1D0
10
3885.868
20
3725.751
0
VERTEX
8
L1D0
10
3882.024
20
3724.945
0
VERTEX
8
L1D0
10
3878.216
20
3723.981
0
VERTEX
8
L1D0
10
3874.452
20
3722.86
0
VERTEX
8
L1D0
10
3870.737
20
3721.585
0
VERTEX
8
L1D0
10
3867.078
20
3720.157
0
VERTEX
8
L1D0
10
3863.482
20
3718.58
0
VERTEX
8
L1D0
10
3859.953
20
3716.855
0
VERTEX
8
L1D0
10
3856.499
20
3714.985
0
VERTEX
8
L1D0
10
3853.125
20
3712.975
0
VERTEX
8
L1D0
10
3849.837
20
3710.827
0
VERTEX
8
L1D0
10
3846.64
20
3708.545
0
VERTEX
8
L1D0
10
3843.541
20
3706.132
0
VERTEX
8
L1D0
10
3840.544
20
3703.594
0
VERTEX
8
L1D0
10
3837.654
20
3700.934
0
VERTEX
8
L1D0
10
3834.877
20
3698.157
0
VERTEX
8
L1D0
10
3832.217
20
3695.267
0
VERTEX
8
L1D0
10
3829.679
20
3692.27
0
VERTEX
8
L1D0
10
3827.266
20
3689.171
0
VERTEX
8
L1D0
10
3824.984
20
3685.974
0
VERTEX
8
L1D0
10
3822.836
20
3682.686
0
VERTEX
8
L1D0
10
3820.826
20
3679.312
0
VERTEX
8
L1D0
10
3818.956
20
3675.858
0
VERTEX
8
L1D0
10
3817.231
20
3672.329
0
VERTEX
8
L1D0
10
3815.654
20
3668.733
0
VERTEX
8
L1D0
10
3814.226
20
3665.074
0
VERTEX
8
L1D0
10
3812.951
20
3661.359
0
VERTEX
8
L1D0
10
3811.83
20
3657.595
0
VERTEX
8
L1D0
10
3810.866
20
3653.787
0
VERTEX
8
L1D0
10
3810.06
20
3649.943
0
VERTEX
8
L1D0
10
3809.413
20
3646.069
0
VERTEX
8
L1D0
10
3808.928
20
3642.172
0
VERTEX
8
L1D0
10
3808.603
20
3638.258
0
VERTEX
8
L1D0
10
3808.441
20
3634.334
0
VERTEX
8
L1D0
10
3808.441
20
3632.371
0
VERTEX
8
L1D0
10
3798.441
20
3632.371
0
VERTEX
8
L1D0
10
3798.441
20
3634.54
0
VERTEX
8
L1D0
10
3798.62
20
3638.878
0
VERTEX
8
L1D0
10
3798.979
20
3643.204
0
VERTEX
8
L1D0
10
3799.516
20
3647.512
0
VERTEX
8
L1D0
10
3800.23
20
3651.793
0
VERTEX
8
L1D0
10
3801.121
20
3656.042
0
VERTEX
8
L1D0
10
3802.187
20
3660.25
0
VERTEX
8
L1D0
10
3803.425
20
3664.411
0
VERTEX
8
L1D0
10
3804.835
20
3668.516
0
VERTEX
8
L1D0
10
3806.413
20
3672.56
0
VERTEX
8
L1D0
10
3808.157
20
3676.536
0
VERTEX
8
L1D0
10
3810.063
20
3680.436
0
VERTEX
8
L1D0
10
3812.129
20
3684.253
0
VERTEX
8
L1D0
10
3814.351
20
3687.982
0
VERTEX
8
L1D0
10
3816.726
20
3691.617
0
VERTEX
8
L1D0
10
3819.248
20
3695.15
0
VERTEX
8
L1D0
10
3821.914
20
3698.575
0
VERTEX
8
L1D0
10
3824.72
20
3701.888
0
VERTEX
8
L1D0
10
3827.66
20
3705.081
0
VERTEX
8
L1D0
10
3830.73
20
3708.151
0
VERTEX
8
L1D0
10
3833.923
20
3711.091
0
VERTEX
8
L1D0
10
3837.236
20
3713.897
0
VERTEX
8
L1D0
10
3840.661
20
3716.563
0
VERTEX
8
L1D0
10
3844.194
20
3719.085
0
VERTEX
8
L1D0
10
3847.829
20
3721.46
0
VERTEX
8
L1D0
10
3851.558
20
3723.682
0
VERTEX
8
L1D0
10
3855.375
20
3725.748
0
VERTEX
8
L1D0
10
3859.275
20
3727.654
0
VERTEX
8
L1D0
10
3863.251
20
3729.398
0
VERTEX
8
L1D0
10
3867.295
20
3730.976
0
VERTEX
8
L1D0
10
3871.4
20
3732.386
0
VERTEX
8
L1D0
10
3875.561
20
3733.624
0
VERTEX
8
L1D0
10
3879.769
20
3734.69
0
VERTEX
8
L1D0
10
3884.018
20
3735.581
0
VERTEX
8
L1D0
10
3888.299
20
3736.295
0
VERTEX
8
L1D0
10
3892.607
20
3736.832
0
VERTEX
8
L1D0
10
3896.933
20
3737.191
0
VERTEX
8
L1D0
10
3901.271
20
3737.37
0
VERTEX
8
L1D0
10
3986.909
20
3737.37
0
VERTEX
8
L1D0
10
3990.833
20
3737.532
0
VERTEX
8
L1D0
10
3994.747
20
3737.857
0
VERTEX
8
L1D0
10
3998.644
20
3738.342
0
VERTEX
8
L1D0
10
4002.518
20
3738.989
0
VERTEX
8
L1D0
10
4006.362
20
3739.795
0
VERTEX
8
L1D0
10
4010.17
20
3740.759
0
VERTEX
8
L1D0
10
4013.934
20
3741.88
0
VERTEX
8
L1D0
10
4017.649
20
3743.155
0
VERTEX
8
L1D0
10
4021.308
20
3744.583
0
VERTEX
8
L1D0
10
4024.904
20
3746.16
0
VERTEX
8
L1D0
10
4028.433
20
3747.885
0
VERTEX
8
L1D0
10
4031.887
20
3749.755
0
VERTEX
8
L1D0
10
4035.261
20
3751.765
0
VERTEX
8
L1D0
10
4038.549
20
3753.913
0
VERTEX
8
L1D0
10
4041.746
20
3756.195
0
VERTEX
8
L1D0
10
4044.845
20
3758.608
0
VERTEX
8
L1D0
10
4047.842
20
3761.146
0
VERTEX
8
L1D0
10
4050.732
20
3763.806
0
VERTEX
8
L1D0
10
4053.509
20
3766.583
0
VERTEX
8
L1D0
10
4056.169
20
3769.473
0
VERTEX
8
L1D0
10
4058.707
20
3772.47
0
VERTEX
8
L1D0
10
4061.12
20
3775.569
0
VERTEX
8
L1D0
10
4063.402
20
3778.766
0
VERTEX
8
L1D0
10
4065.55
20
3782.054
0
VERTEX
8
L1D0
10
4067.56
20
3785.428
0
VERTEX
8
L1D0
10
4069.43
20
3788.882
0
VERTEX
8
L1D0
10
4071.155
20
3792.411
0
VERTEX
8
L1D0
10
4072.732
20
3796.007
0
VERTEX
8
L1D0
10
4074.16
20
3799.666
0
VERTEX
8
L1D0
10
4075.435
20
3803.381
0
VERTEX
8
L1D0
10
4076.556
20
3807.145
0
VERTEX
8
L1D0
10
4077.52
20
3810.953
0
VERTEX
8
L1D0
10
4078.326
20
3814.797
0
VERTEX
8
L1D0
10
4078.973
20
3818.671
0
VERTEX
8
L1D0
10
4079.458
20
3822.568
0
VERTEX
8
L1D0
10
4079.783
20
3826.482
0
VERTEX
8
L1D0
10
4079.945
20
3830.406
0
VERTEX
8
L1D0
10
4079.945
20
3834.334
0
VERTEX
8
L1D0
10
4079.783
20
3838.258
0
VERTEX
8
L1D0
10
4079.458
20
3842.172
0
VERTEX
8
L1D0
10
4078.973
20
3846.069
0
VERTEX
8
L1D0
10
4078.326
20
3849.943
0
VERTEX
8
L1D0
10
4077.52
20
3853.787
0
VERTEX
8
L1D0
10
4076.556
20
3857.595
0
VERTEX
8
L1D0
10
4075.435
20
3861.359
0
VERTEX
8
L1D0
10
4074.16
20
3865.074
0
VERTEX
8
L1D0
10
4072.732
20
3868.733
0
VERTEX
8
L1D0
10
4071.155
20
3872.329
0
VERTEX
8
L1D0
10
4069.43
20
3875.858
0
VERTEX
8
L1D0
10
4067.56
20
3879.312
0
VERTEX
8
L1D0
10
4065.55
20
3882.686
0
VERTEX
8
L1D0
10
4063.402
20
3885.974
0
VERTEX
8
L1D0
10
4061.12
20
3889.171
0
VERTEX
8
L1D0
10
4058.707
20
3892.27
0
VERTEX
8
L1D0
10
4056.169
20
3895.267
0
VERTEX
8
L1D0
10
4053.509
20
3898.157
0
VERTEX
8
L1D0
10
4050.732
20
3900.934
0
VERTEX
8
L1D0
10
4047.842
20
3903.594
0
VERTEX
8
L1D0
10
4044.845
20
3906.132
0
VERTEX
8
L1D0
10
4041.746
20
3908.545
0
VERTEX
8
L1D0
10
4038.549
20
3910.827
0
VERTEX
8
L1D0
10
4035.261
20
3912.975
0
VERTEX
8
L1D0
10
4031.887
20
3914.985
0
VERTEX
8
L1D0
10
4028.433
20
3916.855
0
VERTEX
8
L1D0
10
4024.904
20
3918.58
0
VERTEX
8
L1D0
10
4021.308
20
3920.157
0
VERTEX
8
L1D0
10
4017.649
20
3921.585
0
VERTEX
8
L1D0
10
4013.934
20
3922.86
0
VERTEX
8
L1D0
10
4010.17
20
3923.981
0
VERTEX
8
L1D0
10
4006.362
20
3924.945
0
VERTEX
8
L1D0
10
4002.518
20
3925.751
0
VERTEX
8
L1D0
10
3998.644
20
3926.398
0
VERTEX
8
L1D0
10
3994.747
20
3926.883
0
VERTEX
8
L1D0
10
3990.833
20
3927.208
0
VERTEX
8
L1D0
10
3986.909
20
3927.37
0
VERTEX
8
L1D0
10
3619.767
20
3927.37
0
VERTEX
8
L1D0
10
3615.429
20
3927.549
0
VERTEX
8
L1D0
10
3611.103
20
3927.908
0
VERTEX
8
L1D0
10
3606.795
20
3928.445
0
VERTEX
8
L1D0
10
3602.514
20
3929.159
0
VERTEX
8
L1D0
10
3598.265
20
3930.05
0
VERTEX
8
L1D0
10
3594.057
20
3931.116
0
VERTEX
8
L1D0
10
3589.896
20
3932.354
0
VERTEX
8
L1D0
10
3585.791
20
3933.764
0
VERTEX
8
L1D0
10
3581.747
20
3935.342
0
VERTEX
8
L1D0
10
3577.771
20
3937.086
0
VERTEX
8
L1D0
10
3573.871
20
3938.992
0
VERTEX
8
L1D0
10
3570.054
20
3941.058
0
VERTEX
8
L1D0
10
3566.325
20
3943.28
0
VERTEX
8
L1D0
10
3562.69
20
3945.655
0
VERTEX
8
L1D0
10
3559.157
20
3948.177
0
VERTEX
8
L1D0
10
3555.732
20
3950.843
0
VERTEX
8
L1D0
10
3552.419
20
3953.649
0
VERTEX
8
L1D0
10
3549.226
20
3956.589
0
VERTEX
8
L1D0
10
3546.156
20
3959.659
0
VERTEX
8
L1D0
10
3543.216
20
3962.852
0
VERTEX
8
L1D0
10
3540.41
20
3966.165
0
VERTEX
8
L1D0
10
3537.744
20
3969.59
0
VERTEX
8
L1D0
10
3535.222
20
3973.123
0
VERTEX
8
L1D0
10
3532.847
20
3976.758
0
VERTEX
8
L1D0
10
3530.625
20
3980.487
0
VERTEX
8
L1D0
10
3528.559
20
3984.304
0
VERTEX
8
L1D0
10
3526.653
20
3988.204
0
VERTEX
8
L1D0
10
3524.909
20
3992.18
0
VERTEX
8
L1D0
10
3523.331
20
3996.224
0
VERTEX
8
L1D0
10
3521.921
20
4000.329
0
VERTEX
8
L1D0
10
3520.683
20
4004.49
0
VERTEX
8
L1D0
10
3519.617
20
4008.698
0
VERTEX
8
L1D0
10
3518.726
20
4012.947
0
VERTEX
8
L1D0
10
3518.012
20
4017.228
0
VERTEX
8
L1D0
10
3517.475
20
4021.536
0
VERTEX
8
L1D0
10
3517.116
20
4025.862
0
VERTEX
8
L1D0
10
3516.937
20
4030.2
0
VERTEX
8
L1D0
10
3516.937
20
4034.54
0
VERTEX
8
L1D0
10
3517.116
20
4038.878
0
VERTEX
8
L1D0
10
3517.475
20
4043.204
0
VERTEX
8
L1D0
10
3518.012
20
4047.512
0
VERTEX
8
L1D0
10
3518.726
20
4051.793
0
VERTEX
8
L1D0
10
3519.617
20
4056.042
0
VERTEX
8
L1D0
10
3520.683
20
4060.25
0
VERTEX
8
L1D0
10
3521.921
20
4064.411
0
VERTEX
8
L1D0
10
3523.331
20
4068.516
0
VERTEX
8
L1D0
10
3524.909
20
4072.56
0
VERTEX
8
L1D0
10
3526.653
20
4076.536
0
VERTEX
8
L1D0
10
3528.559
20
4080.436
0
VERTEX
8
L1D0
10
3530.625
20
4084.253
0
VERTEX
8
L1D0
10
3532.847
20
4087.982
0
VERTEX
8
L1D0
10
3535.222
20
4091.617
0
VERTEX
8
L1D0
10
3537.744
20
4095.15
0
VERTEX
8
L1D0
10
3540.41
20
4098.575
0
VERTEX
8
L1D0
10
3543.216
20
4101.888
0
VERTEX
8
L1D0
10
3546.156
20
4105.081
0
VERTEX
8
L1D0
10
3549.226
20
4108.151
0
VERTEX
8
L1D0
10
3552.419
20
4111.091
0
VERTEX
8
L1D0
10
3555.732
20
4113.897
0
VERTEX
8
L1D0
10
3559.157
20
4116.563
0
VERTEX
8
L1D0
10
3562.69
20
4119.085
0
VERTEX
8
L1D0
10
3566.325
20
4121.46
0
VERTEX
8
L1D0
10
3570.054
20
4123.682
0
VERTEX
8
L1D0
10
3573.871
20
4125.748
0
VERTEX
8
L1D0
10
3577.771
20
4127.654
0
VERTEX
8
L1D0
10
3581.747
20
4129.398
0
VERTEX
8
L1D0
10
3585.791
20
4130.976
0
VERTEX
8
L1D0
10
3589.896
20
4132.386
0
VERTEX
8
L1D0
10
3594.057
20
4133.624
0
VERTEX
8
L1D0
10
3598.265
20
4134.69
0
VERTEX
8
L1D0
10
3602.514
20
4135.581
0
VERTEX
8
L1D0
10
3606.795
20
4136.295
0
VERTEX
8
L1D0
10
3611.103
20
4136.832
0
VERTEX
8
L1D0
10
3615.429
20
4137.191
0
VERTEX
8
L1D0
10
3619.767
20
4137.37
0
VERTEX
8
L1D0
10
3986.909
20
4137.37
0
VERTEX
8
L1D0
10
3990.833
20
4137.532
0
VERTEX
8
L1D0
10
3994.747
20
4137.857
0
VERTEX
8
L1D0
10
3998.644
20
4138.342
0
VERTEX
8
L1D0
10
4002.518
20
4138.989
0
VERTEX
8
L1D0
10
4006.362
20
4139.795
0
VERTEX
8
L1D0
10
4010.17
20
4140.759
0
VERTEX
8
L1D0
10
4013.934
20
4141.88
0
VERTEX
8
L1D0
10
4017.649
20
4143.155
0
VERTEX
8
L1D0
10
4021.308
20
4144.583
0
VERTEX
8
L1D0
10
4024.904
20
4146.16
0
VERTEX
8
L1D0
10
4028.433
20
4147.885
0
VERTEX
8
L1D0
10
4031.887
20
4149.755
0
VERTEX
8
L1D0
10
4035.261
20
4151.765
0
VERTEX
8
L1D0
10
4038.549
20
4153.913
0
VERTEX
8
L1D0
10
4041.746
20
4156.195
0
VERTEX
8
L1D0
10
4044.845
20
4158.608
0
VERTEX
8
L1D0
10
4047.842
20
4161.146
0
VERTEX
8
L1D0
10
4050.732
20
4163.806
0
VERTEX
8
L1D0
10
4053.509
20
4166.583
0
VERTEX
8
L1D0
10
4056.169
20
4169.473
0
VERTEX
8
L1D0
10
4058.707
20
4172.47
0
VERTEX
8
L1D0
10
4061.12
20
4175.569
0
VERTEX
8
L1D0
10
4063.402
20
4178.766
0
VERTEX
8
L1D0
10
4065.55
20
4182.054
0
VERTEX
8
L1D0
10
4067.56
20
4185.428
0
VERTEX
8
L1D0
10
4069.43
20
4188.882
0
VERTEX
8
L1D0
10
4071.155
20
4192.411
0
VERTEX
8
L1D0
10
4072.732
20
4196.007
0
VERTEX
8
L1D0
10
4074.16
20
4199.666
0
VERTEX
8
L1D0
10
4075.435
20
4203.381
0
VERTEX
8
L1D0
10
4076.556
20
4207.145
0
VERTEX
8
L1D0
10
4077.52
20
4210.953
0
VERTEX
8
L1D0
10
4078.326
20
4214.797
0
VERTEX
8
L1D0
10
4078.973
20
4218.671
0
VERTEX
8
L1D0
10
4079.458
20
4222.568
0
VERTEX
8
L1D0
10
4079.783
20
4226.482
0
VERTEX
8
L1D0
10
4079.945
20
4230.406
0
VERTEX
8
L1D0
10
4079.945
20
4234.334
0
VERTEX
8
L1D0
10
4079.783
20
4238.258
0
VERTEX
8
L1D0
10
4079.458
20
4242.172
0
VERTEX
8
L1D0
10
4078.973
20
4246.069
0
VERTEX
8
L1D0
10
4078.326
20
4249.943
0
VERTEX
8
L1D0
10
4077.52
20
4253.787
0
VERTEX
8
L1D0
10
4076.556
20
4257.595
0
VERTEX
8
L1D0
10
4075.435
20
4261.359
0
VERTEX
8
L1D0
10
4074.16
20
4265.074
0
VERTEX
8
L1D0
10
4072.732
20
4268.733
0
VERTEX
8
L1D0
10
4071.155
20
4272.329
0
VERTEX
8
L1D0
10
4069.43
20
4275.858
0
VERTEX
8
L1D0
10
4067.56
20
4279.312
0
VERTEX
8
L1D0
10
4065.55
20
4282.686
0
VERTEX
8
L1D0
10
4063.402
20
4285.974
0
VERTEX
8
L1D0
10
4061.12
20
4289.171
0
VERTEX
8
L1D0
10
4058.707
20
4292.27
0
VERTEX
8
L1D0
10
4056.169
20
4295.267
0
VERTEX
8
L1D0
10
4053.509
20
4298.157
0
VERTEX
8
L1D0
10
4050.732
20
4300.934
0
VERTEX
8
L1D0
10
4047.842
20
4303.594
0
VERTEX
8
L1D0
10
4044.845
20
4306.132
0
VERTEX
8
L1D0
10
4041.746
20
4308.545
0
VERTEX
8
L1D0
10
4038.549
20
4310.827
0
VERTEX
8
L1D0
10
4035.261
20
4312.975
0
VERTEX
8
L1D0
10
4031.887
20
4314.985
0
VERTEX
8
L1D0
10
4028.433
20
4316.855
0
VERTEX
8
L1D0
10
4024.904
20
4318.58
0
VERTEX
8
L1D0
10
4021.308
20
4320.157
0
VERTEX
8
L1D0
10
4017.649
20
4321.585
0
VERTEX
8
L1D0
10
4013.934
20
4322.86
0
VERTEX
8
L1D0
10
4010.17
20
4323.981
0
VERTEX
8
L1D0
10
4006.362
20
4324.945
0
VERTEX
8
L1D0
10
4002.518
20
4325.751
0
VERTEX
8
L1D0
10
3998.644
20
4326.398
0
VERTEX
8
L1D0
10
3994.747
20
4326.883
0
VERTEX
8
L1D0
10
3990.833
20
4327.208
0
VERTEX
8
L1D0
10
3986.909
20
4327.37
0
VERTEX
8
L1D0
10
3619.767
20
4327.37
0
VERTEX
8
L1D0
10
3615.429
20
4327.549
0
VERTEX
8
L1D0
10
3611.103
20
4327.908
0
VERTEX
8
L1D0
10
3606.795
20
4328.445
0
VERTEX
8
L1D0
10
3602.514
20
4329.159
0
VERTEX
8
L1D0
10
3598.265
20
4330.05
0
VERTEX
8
L1D0
10
3594.057
20
4331.116
0
VERTEX
8
L1D0
10
3589.896
20
4332.354
0
VERTEX
8
L1D0
10
3585.791
20
4333.764
0
VERTEX
8
L1D0
10
3581.747
20
4335.342
0
VERTEX
8
L1D0
10
3577.771
20
4337.086
0
VERTEX
8
L1D0
10
3573.871
20
4338.992
0
VERTEX
8
L1D0
10
3570.054
20
4341.058
0
VERTEX
8
L1D0
10
3566.325
20
4343.28
0
VERTEX
8
L1D0
10
3562.69
20
4345.655
0
VERTEX
8
L1D0
10
3559.157
20
4348.177
0
VERTEX
8
L1D0
10
3555.732
20
4350.843
0
VERTEX
8
L1D0
10
3552.419
20
4353.649
0
VERTEX
8
L1D0
10
3549.226
20
4356.589
0
VERTEX
8
L1D0
10
3546.156
20
4359.659
0
VERTEX
8
L1D0
10
3543.216
20
4362.852
0
VERTEX
8
L1D0
10
3540.41
20
4366.165
0
VERTEX
8
L1D0
10
3537.744
20
4369.59
0
VERTEX
8
L1D0
10
3535.222
20
4373.123
0
VERTEX
8
L1D0
10
3532.847
20
4376.758
0
VERTEX
8
L1D0
10
3530.625
20
4380.487
0
VERTEX
8
L1D0
10
3528.559
20
4384.304
0
VERTEX
8
L1D0
10
3526.653
20
4388.204
0
VERTEX
8
L1D0
10
3524.909
20
4392.18
0
VERTEX
8
L1D0
10
3523.331
20
4396.224
0
VERTEX
8
L1D0
10
3521.921
20
4400.329
0
VERTEX
8
L1D0
10
3520.683
20
4404.49
0
VERTEX
8
L1D0
10
3519.617
20
4408.698
0
VERTEX
8
L1D0
10
3518.726
20
4412.947
0
VERTEX
8
L1D0
10
3518.012
20
4417.228
0
VERTEX
8
L1D0
10
3517.475
20
4421.536
0
VERTEX
8
L1D0
10
3517.116
20
4425.862
0
VERTEX
8
L1D0
10
3516.937
20
4430.2
0
VERTEX
8
L1D0
10
3516.937
20
4434.54
0
VERTEX
8
L1D0
10
3517.116
20
4438.878
0
VERTEX
8
L1D0
10
3517.475
20
4443.204
0
VERTEX
8
L1D0
10
3518.012
20
4447.512
0
VERTEX
8
L1D0
10
3518.726
20
4451.793
0
VERTEX
8
L1D0
10
3519.617
20
4456.042
0
VERTEX
8
L1D0
10
3520.683
20
4460.25
0
VERTEX
8
L1D0
10
3521.921
20
4464.411
0
VERTEX
8
L1D0
10
3523.331
20
4468.516
0
VERTEX
8
L1D0
10
3524.909
20
4472.56
0
VERTEX
8
L1D0
10
3526.653
20
4476.536
0
VERTEX
8
L1D0
10
3528.559
20
4480.436
0
VERTEX
8
L1D0
10
3530.625
20
4484.253
0
VERTEX
8
L1D0
10
3532.847
20
4487.982
0
VERTEX
8
L1D0
10
3535.222
20
4491.617
0
VERTEX
8
L1D0
10
3537.744
20
4495.15
0
VERTEX
8
L1D0
10
3540.41
20
4498.575
0
VERTEX
8
L1D0
10
3543.216
20
4501.888
0
VERTEX
8
L1D0
10
3546.156
20
4505.081
0
VERTEX
8
L1D0
10
3549.226
20
4508.151
0
VERTEX
8
L1D0
10
3552.419
20
4511.091
0
VERTEX
8
L1D0
10
3555.732
20
4513.897
0
VERTEX
8
L1D0
10
3559.157
20
4516.563
0
VERTEX
8
L1D0
10
3562.69
20
4519.085
0
VERTEX
8
L1D0
10
3566.325
20
4521.46
0
VERTEX
8
L1D0
10
3570.054
20
4523.682
0
VERTEX
8
L1D0
10
3573.871
20
4525.748
0
VERTEX
8
L1D0
10
3577.771
20
4527.654
0
VERTEX
8
L1D0
10
3581.747
20
4529.398
0
VERTEX
8
L1D0
10
3585.791
20
4530.976
0
VERTEX
8
L1D0
10
3589.896
20
4532.386
0
VERTEX
8
L1D0
10
3594.057
20
4533.624
0
VERTEX
8
L1D0
10
3598.265
20
4534.69
0
VERTEX
8
L1D0
10
3602.514
20
4535.581
0
VERTEX
8
L1D0
10
3606.795
20
4536.295
0
VERTEX
8
L1D0
10
3611.103
20
4536.832
0
VERTEX
8
L1D0
10
3615.429
20
4537.191
0
VERTEX
8
L1D0
10
3619.767
20
4537.37
0
VERTEX
8
L1D0
10
3986.909
20
4537.37
0
VERTEX
8
L1D0
10
3990.833
20
4537.532
0
VERTEX
8
L1D0
10
3994.747
20
4537.857
0
VERTEX
8
L1D0
10
3998.644
20
4538.342
0
VERTEX
8
L1D0
10
4002.518
20
4538.989
0
VERTEX
8
L1D0
10
4006.362
20
4539.795
0
VERTEX
8
L1D0
10
4010.17
20
4540.759
0
VERTEX
8
L1D0
10
4013.934
20
4541.88
0
VERTEX
8
L1D0
10
4017.649
20
4543.155
0
VERTEX
8
L1D0
10
4021.308
20
4544.583
0
VERTEX
8
L1D0
10
4024.904
20
4546.16
0
VERTEX
8
L1D0
10
4028.433
20
4547.885
0
VERTEX
8
L1D0
10
4031.887
20
4549.755
0
VERTEX
8
L1D0
10
4035.261
20
4551.765
0
VERTEX
8
L1D0
10
4038.549
20
4553.913
0
VERTEX
8
L1D0
10
4041.746
20
4556.195
0
VERTEX
8
L1D0
10
4044.845
20
4558.608
0
VERTEX
8
L1D0
10
4047.842
20
4561.146
0
VERTEX
8
L1D0
10
4050.732
20
4563.806
0
VERTEX
8
L1D0
10
4053.509
20
4566.583
0
VERTEX
8
L1D0
10
4056.169
20
4569.473
0
VERTEX
8
L1D0
10
4058.707
20
4572.47
0
VERTEX
8
L1D0
10
4061.12
20
4575.569
0
VERTEX
8
L1D0
10
4063.402
20
4578.766
0
VERTEX
8
L1D0
10
4065.55
20
4582.054
0
VERTEX
8
L1D0
10
4067.56
20
4585.428
0
VERTEX
8
L1D0
10
4069.43
20
4588.882
0
VERTEX
8
L1D0
10
4071.155
20
4592.411
0
VERTEX
8
L1D0
10
4072.732
20
4596.007
0
VERTEX
8
L1D0
10
4074.16
20
4599.666
0
VERTEX
8
L1D0
10
4075.435
20
4603.381
0
VERTEX
8
L1D0
10
4076.556
20
4607.145
0
VERTEX
8
L1D0
10
4077.52
20
4610.953
0
VERTEX
8
L1D0
10
4078.326
20
4614.797
0
VERTEX
8
L1D0
10
4078.973
20
4618.671
0
VERTEX
8
L1D0
10
4079.458
20
4622.568
0
VERTEX
8
L1D0
10
4079.783
20
4626.482
0
VERTEX
8
L1D0
10
4079.945
20
4630.406
0
VERTEX
8
L1D0
10
4079.945
20
4634.334
0
VERTEX
8
L1D0
10
4079.783
20
4638.258
0
VERTEX
8
L1D0
10
4079.458
20
4642.172
0
VERTEX
8
L1D0
10
4078.973
20
4646.069
0
VERTEX
8
L1D0
10
4078.326
20
4649.943
0
VERTEX
8
L1D0
10
4077.52
20
4653.787
0
VERTEX
8
L1D0
10
4076.556
20
4657.595
0
VERTEX
8
L1D0
10
4075.435
20
4661.359
0
VERTEX
8
L1D0
10
4074.16
20
4665.074
0
VERTEX
8
L1D0
10
4072.732
20
4668.733
0
VERTEX
8
L1D0
10
4071.155
20
4672.329
0
VERTEX
8
L1D0
10
4069.43
20
4675.858
0
VERTEX
8
L1D0
10
4067.56
20
4679.312
0
VERTEX
8
L1D0
10
4065.55
20
4682.686
0
VERTEX
8
L1D0
10
4063.402
20
4685.974
0
VERTEX
8
L1D0
10
4061.12
20
4689.171
0
VERTEX
8
L1D0
10
4058.707
20
4692.27
0
VERTEX
8
L1D0
10
4056.169
20
4695.267
0
VERTEX
8
L1D0
10
4053.509
20
4698.157
0
VERTEX
8
L1D0
10
4050.732
20
4700.934
0
VERTEX
8
L1D0
10
4047.842
20
4703.594
0
VERTEX
8
L1D0
10
4044.845
20
4706.132
0
VERTEX
8
L1D0
10
4041.746
20
4708.545
0
VERTEX
8
L1D0
10
4038.549
20
4710.827
0
VERTEX
8
L1D0
10
4035.261
20
4712.975
0
VERTEX
8
L1D0
10
4031.887
20
4714.985
0
VERTEX
8
L1D0
10
4028.433
20
4716.855
0
VERTEX
8
L1D0
10
4024.904
20
4718.58
0
VERTEX
8
L1D0
10
4021.308
20
4720.157
0
VERTEX
8
L1D0
10
4017.649
20
4721.585
0
VERTEX
8
L1D0
10
4013.934
20
4722.86
0
VERTEX
8
L1D0
10
4010.17
20
4723.981
0
VERTEX
8
L1D0
10
4006.362
20
4724.945
0
VERTEX
8
L1D0
10
4002.518
20
4725.751
0
VERTEX
8
L1D0
10
3998.644
20
4726.398
0
VERTEX
8
L1D0
10
3994.747
20
4726.883
0
VERTEX
8
L1D0
10
3990.833
20
4727.208
0
VERTEX
8
L1D0
10
3986.909
20
4727.37
0
VERTEX
8
L1D0
10
3901.271
20
4727.37
0
VERTEX
8
L1D0
10
3896.933
20
4727.549
0
VERTEX
8
L1D0
10
3892.607
20
4727.908
0
VERTEX
8
L1D0
10
3888.299
20
4728.445
0
VERTEX
8
L1D0
10
3884.018
20
4729.159
0
VERTEX
8
L1D0
10
3879.769
20
4730.05
0
VERTEX
8
L1D0
10
3875.561
20
4731.116
0
VERTEX
8
L1D0
10
3871.4
20
4732.354
0
VERTEX
8
L1D0
10
3867.295
20
4733.764
0
VERTEX
8
L1D0
10
3863.251
20
4735.342
0
VERTEX
8
L1D0
10
3859.275
20
4737.086
0
VERTEX
8
L1D0
10
3855.375
20
4738.992
0
VERTEX
8
L1D0
10
3851.558
20
4741.058
0
VERTEX
8
L1D0
10
3847.829
20
4743.28
0
VERTEX
8
L1D0
10
3844.194
20
4745.655
0
VERTEX
8
L1D0
10
3840.661
20
4748.177
0
VERTEX
8
L1D0
10
3837.236
20
4750.843
0
VERTEX
8
L1D0
10
3833.923
20
4753.649
0
VERTEX
8
L1D0
10
3830.73
20
4756.589
0
VERTEX
8
L1D0
10
3827.66
20
4759.659
0
VERTEX
8
L1D0
10
3824.72
20
4762.852
0
VERTEX
8
L1D0
10
3821.914
20
4766.165
0
VERTEX
8
L1D0
10
3819.248
20
4769.59
0
VERTEX
8
L1D0
10
3816.726
20
4773.123
0
VERTEX
8
L1D0
10
3814.351
20
4776.758
0
VERTEX
8
L1D0
10
3812.129
20
4780.487
0
VERTEX
8
L1D0
10
3810.063
20
4784.304
0
VERTEX
8
L1D0
10
3808.157
20
4788.204
0
VERTEX
8
L1D0
10
3806.413
20
4792.18
0
VERTEX
8
L1D0
10
3804.835
20
4796.224
0
VERTEX
8
L1D0
10
3803.425
20
4800.329
0
VERTEX
8
L1D0
10
3802.187
20
4804.49
0
VERTEX
8
L1D0
10
3801.121
20
4808.698
0
VERTEX
8
L1D0
10
3800.23
20
4812.947
0
VERTEX
8
L1D0
10
3799.516
20
4817.228
0
VERTEX
8
L1D0
10
3798.979
20
4821.536
0
VERTEX
8
L1D0
10
3798.62
20
4825.862
0
VERTEX
8
L1D0
10
3798.441
20
4830.2
0
VERTEX
8
L1D0
10
3798.441
20
4835.46
0
VERTEX
8
L1D0
10
3798.62
20
4839.798
0
VERTEX
8
L1D0
10
3798.979
20
4844.124
0
VERTEX
8
L1D0
10
3799.516
20
4848.432
0
VERTEX
8
L1D0
10
3800.23
20
4852.713
0
VERTEX
8
L1D0
10
3801.121
20
4856.962
0
VERTEX
8
L1D0
10
3802.187
20
4861.17
0
VERTEX
8
L1D0
10
3803.425
20
4865.331
0
VERTEX
8
L1D0
10
3804.835
20
4869.436
0
VERTEX
8
L1D0
10
3806.413
20
4873.48
0
VERTEX
8
L1D0
10
3808.157
20
4877.456
0
VERTEX
8
L1D0
10
3810.063
20
4881.356
0
VERTEX
8
L1D0
10
3812.129
20
4885.173
0
VERTEX
8
L1D0
10
3814.351
20
4888.902
0
VERTEX
8
L1D0
10
3816.726
20
4892.537
0
VERTEX
8
L1D0
10
3819.248
20
4896.07
0
VERTEX
8
L1D0
10
3821.914
20
4899.495
0
VERTEX
8
L1D0
10
3824.72
20
4902.808
0
VERTEX
8
L1D0
10
3827.66
20
4906.001
0
VERTEX
8
L1D0
10
3830.73
20
4909.071
0
VERTEX
8
L1D0
10
3833.923
20
4912.011
0
VERTEX
8
L1D0
10
3837.236
20
4914.817
0
VERTEX
8
L1D0
10
3840.661
20
4917.483
0
VERTEX
8
L1D0
10
3844.194
20
4920.005
0
VERTEX
8
L1D0
10
3847.829
20
4922.38
0
VERTEX
8
L1D0
10
3851.558
20
4924.602
0
VERTEX
8
L1D0
10
3855.375
20
4926.668
0
VERTEX
8
L1D0
10
3859.275
20
4928.574
0
VERTEX
8
L1D0
10
3863.251
20
4930.318
0
VERTEX
8
L1D0
10
3867.295
20
4931.896
0
VERTEX
8
L1D0
10
3871.4
20
4933.306
0
VERTEX
8
L1D0
10
3875.561
20
4934.544
0
VERTEX
8
L1D0
10
3879.769
20
4935.61
0
VERTEX
8
L1D0
10
3884.018
20
4936.501
0
VERTEX
8
L1D0
10
3888.299
20
4937.215
0
VERTEX
8
L1D0
10
3892.607
20
4937.752
0
VERTEX
8
L1D0
10
3896.933
20
4938.111
0
VERTEX
8
L1D0
10
3901.271
20
4938.29
0
VERTEX
8
L1D0
10
4103.441
20
4938.29
0
VERTEX
8
L1D0
10
4103.441
20
4944.29
0
VERTEX
8
L1D0
10
1702.294
20
4944.29
0
VERTEX
8
L1D0
10
1714.152
20
4954.29
0
VERTEX
8
L1D0
10
6714.152
20
4954.29
0
VERTEX
8
L1D0
10
7014.152
20
4701.29
0
VERTEX
8
L1D0
10
7458.152
20
4701.29
0
VERTEX
8
L1D0
10
7458.152
20
5229.29
0
VERTEX
8
L1D0
10
838.476
20
5229.29
0
VERTEX
8
L1D0
10
838.476
20
6038.464
0
VERTEX
8
L1D0
10
7585.866
20
6038.464
0
VERTEX
8
L1D0
10
7585.866
20
3112.796
0
SEQEND
0
ENDSEC
0
EOF
